<svg width="53" height="52" viewBox="0 0 53 52" fill="none" xmlns="http://www.w3.org/2000/svg">
<path d="M43.6235 5.82551L40.9869 2.61613L38.3503 5.82551L35.7138 2.61613L33.0772 5.82551L30.4407 2.61613L27.8041 5.82551L25.1675 2.61613L22.531 5.82551L19.8944 2.61613L17.2579 5.82551L14.6213 2.61613L11.9847 5.82551L9.22629 2.46988H8.9541L8.99879 49.6111L41.125 49.6599C47.9013 49.6599 46.5444 35.5183 46.5444 35.5183L46.5525 2.46582H46.3982L43.6235 5.82551Z" fill="white"/>
<path d="M27.1499 15.9373C28.9448 15.9373 30.3999 14.4822 30.3999 12.6873C30.3999 10.8923 28.9448 9.43726 27.1499 9.43726C25.355 9.43726 23.8999 10.8923 23.8999 12.6873C23.8999 14.4822 25.355 15.9373 27.1499 15.9373Z" fill="#94D1E0"/>
<path d="M13.6665 19.3457H29.299M36.4287 19.3457H41.1778M36.4287 24.6838H41.1778M24.5987 24.6838H28.8928M13.6665 24.6838H20.8246M33.8612 39.7882H41.1778M36.4287 30.022H41.1778M13.6665 30.022H26.3253" stroke="#82AEC0" stroke-width="0.5625" stroke-miterlimit="10" stroke-linecap="round"/>
<path d="M13.8291 35.3601H13.9916" stroke="#82AEC0" stroke-width="0.5625" stroke-miterlimit="10" stroke-linecap="round"/>
<path d="M17.0425 35.3601H39.0084" stroke="#82AEC0" stroke-width="0.5625" stroke-miterlimit="10" stroke-linecap="round"/>
<path d="M40.5359 35.3601H40.6984" stroke="#82AEC0" stroke-width="0.5625" stroke-miterlimit="10" stroke-linecap="round"/>
<path d="M47.2676 1.23511H47.1661C47.1336 1.23511 46.5607 1.2473 45.6629 2.21011L43.6276 4.68823L40.987 1.47886L38.3504 4.68823L35.7098 1.47886L33.0732 4.68823L30.4326 1.47886L27.7961 4.68823L25.1595 1.47886L22.5229 4.68823L19.8864 1.47886L17.2498 4.68823L14.6132 1.47886L11.9767 4.68417L10.6036 2.92104C9.20605 1.24323 8.33262 1.40167 8.29605 1.40573L8.2148 1.42198L8.25543 43.2982L6.06574 45.6829L3.72574 42.8757C3.72574 42.8757 2.31199 44.9192 4.13605 47.6817C5.59449 49.8957 10.2501 49.6682 12.1514 49.6682L39.7642 49.6926C44.4564 49.6642 45.736 48.6729 46.646 44.4682C47.2717 41.5717 47.2676 37.302 47.2676 35.6932V1.23511ZM29.2179 42.8798L26.6464 45.687L24.0748 42.8798L21.5032 45.687L18.9317 42.8798L16.3601 45.687L13.7886 42.8798L11.217 45.687L9.71793 44.0498L9.68137 4.16823L11.9807 6.96323L14.6173 3.75386L17.2539 6.96323L19.8904 3.75386L22.527 6.96323L25.1636 3.75386L27.8001 6.96323L30.4367 3.75386L33.0773 6.96323L35.7139 3.75386L38.3545 6.96323L40.9911 3.75386L43.6317 6.96323L45.8132 4.30636L45.8051 35.4901V35.8557C45.8092 37.5539 45.8254 41.5351 45.2161 44.1595C44.5904 46.8773 43.6032 47.9742 41.5801 48.2098C40.9789 48.2789 37.8223 48.356 34.8973 42.8879C34.8486 42.7945 34.7714 42.8148 34.7551 42.8189C34.7511 42.8189 34.747 42.8229 34.7429 42.8229C34.7145 42.701 34.6982 42.6279 34.6982 42.6279L31.7936 45.6829L29.2179 42.8798Z" fill="#6FBFF0"/>
</svg>
