<svg width="1512" height="982" viewBox="0 0 1512 982" fill="none" xmlns="http://www.w3.org/2000/svg">
<path opacity="0.21" d="M784.895 981.756V920.442L727.059 887.052V952.689L673.192 983.787V919.299L616.351 952.116L561.49 920.444V860.277C563.159 859.836 564.394 858.332 564.394 856.523C564.394 856.17 564.332 855.833 564.243 855.507L616.845 825.14L617.341 824.854V758.071L560.501 790.89L504.646 758.643L448.794 790.888L393.935 759.216V695.875L450.779 663.056L393.935 630.238V564.598L336.595 597.705L336.099 597.99V661.337L284.986 631.828C285.073 631.502 285.137 631.165 285.137 630.811C285.137 629.005 283.902 627.498 282.233 627.057V502.402L337.588 470.443L338.084 470.159V403.374L280.744 436.481L280.248 436.766V501.263L225.391 532.936L171.518 501.832L225.887 470.441L226.383 470.157V403.372L169.043 436.479L168.547 436.764V564.606L117.434 535.096C117.521 534.77 117.585 534.435 117.585 534.08C117.585 532.273 116.35 530.767 114.68 530.326V469.014L59.8215 437.342L113.688 406.244L114.68 406.818V405.671L115.673 405.097L114.68 404.525V340.031L61.5822 309.376C61.6696 309.05 61.7331 308.713 61.7331 308.359C61.7331 306.208 59.9883 304.463 57.8365 304.463C55.6847 304.463 53.9398 306.208 53.9398 308.359C53.9398 310.166 55.1765 311.672 56.8439 312.113V372.278L0 405.099L55.8514 437.344L1.48879 468.732L0.992526 469.018V533.51L0 534.084L0.992526 534.657V599.152L55.8296 630.811L1.44512 662.209L0.948855 662.493V729.274L58.291 696.169L58.7873 695.883V632.516L58.829 632.54V566.902L110.923 536.825C111.403 537.309 112.014 537.657 112.695 537.835V599.144L167.554 630.813L113.192 662.199L112.695 662.485V727.003L60.6473 757.053C59.9406 756.34 58.962 755.897 57.8801 755.897C55.7283 755.897 53.9835 757.642 53.9835 759.794C53.9835 761.6 55.2202 763.107 56.8876 763.548V888.13L1.44313 920.142L0.94687 920.428V987.211L1.0362 987.16V1050.56L56.8876 1082.8V1083.95L57.8821 1083.37L58.8727 1083.94V1082.8L114.228 1050.84L114.724 1050.56V983.773L60.6453 1015C59.9406 1014.28 58.962 1013.84 57.8801 1013.84C56.7983 1013.84 55.8196 1014.28 55.113 1015L3.96812 985.464L56.8876 954.913V954.976L113.73 922.159L170.573 954.976V889.319L225.885 857.385L226.381 857.101V795.793C228.049 795.352 229.285 793.845 229.285 792.039C229.285 789.887 227.54 788.142 225.389 788.142C223.237 788.142 221.492 789.887 221.492 792.039C221.492 792.392 221.554 792.73 221.643 793.055L169.041 823.425L168.545 823.711V887.028L114.722 855.956V728.095L169.537 696.449L226.381 729.266V663.628L278.475 633.553C278.955 634.037 279.567 634.382 280.248 634.563V695.875L333.346 726.53C333.258 726.856 333.195 727.193 333.195 727.547C333.195 727.9 333.256 728.236 333.346 728.561L280.744 758.932L280.248 759.218V888.126L228.469 918.022C227.763 917.032 226.61 916.383 225.301 916.383C223.15 916.383 221.405 918.128 221.405 920.279C221.405 922.086 222.641 923.592 224.309 924.033V987.209L280.16 954.962V1018.31L337.997 1051.7V984.915L283.193 953.275L337.091 922.157L389.199 952.239C389.112 952.564 389.048 952.902 389.048 953.255C389.048 955.407 390.793 957.152 392.945 957.152C395.099 957.152 396.842 955.407 396.842 953.255C396.842 951.449 395.605 949.944 393.937 949.501V824.854L448.796 793.18L502.663 824.282L448.3 855.67L447.804 855.954V920.446L446.811 921.02L447.804 921.593V984.94L392.449 1016.9L391.952 1017.18V1083.96L449.293 1050.86L449.789 1050.57V987.231L503.655 1018.33V1019.47L504.648 1018.9L561.492 1051.72V989.262C562.172 989.081 562.786 988.736 563.268 988.25L615.36 1018.32V1083.94L671.211 1051.7V1051.71L728.552 1018.61L729.048 1018.32V954.978L780.163 984.488C780.074 984.815 780.012 985.151 780.012 985.506C780.012 987.658 781.757 989.403 783.909 989.403C786.061 989.403 787.805 987.658 787.805 985.506C787.799 983.702 786.565 982.197 784.895 981.756ZM170.532 437.912L224.398 406.812V469.01L170.532 500.109V437.912ZM56.8003 694.732L2.93192 725.83V663.636L56.8003 632.538V694.732ZM112.739 987.207V1049.41L58.8727 1080.5V1021.49C60.5401 1021.05 61.7768 1019.54 61.7768 1017.73C61.7768 1017.38 61.7133 1017.04 61.6259 1016.72L112.739 987.207ZM56.8876 1021.49V1080.5L3.02125 1049.41V987.209L54.1324 1016.72C54.045 1017.04 53.9815 1017.38 53.9815 1017.73C53.9835 1019.54 55.2202 1021.05 56.8876 1021.49ZM671.209 984.917L617.343 1016.02V953.833L671.209 922.735V984.917ZM559.505 981.756C558.824 981.937 558.212 982.282 557.732 982.767L506.633 953.263L559.505 922.737V981.756ZM505.638 888.197V825.999L556.751 855.509C556.664 855.835 556.6 856.17 556.6 856.523C556.6 858.33 557.835 859.835 559.503 860.275V919.297L505.638 888.197ZM559.505 852.772C558.824 852.952 558.212 853.298 557.73 853.784L506.631 824.282L559.505 793.754V852.772ZM504.646 889.918L558.512 921.018L534.042 935.146L504.648 952.116L450.781 921.016L475.251 906.888L504.646 889.918ZM505.638 954.982L556.751 984.494C556.664 984.819 556.6 985.155 556.6 985.508C556.6 985.861 556.662 986.199 556.751 986.525L505.638 1016.03V954.982ZM615.358 823.707L563.264 853.78C562.784 853.296 562.171 852.95 561.49 852.77V792.611L615.358 761.511V823.707ZM338.084 723.795V664.773L391.952 695.873V758.071L340.839 728.561C340.927 728.236 340.99 727.9 340.99 727.547C340.99 725.742 339.753 724.236 338.084 723.795ZM338.084 731.302C338.765 731.122 339.378 730.776 339.859 730.292L390.956 759.792L338.084 790.314V731.302ZM392.945 694.154L339.077 663.054L365.496 647.801L392.943 631.955L446.809 663.054L392.945 694.154ZM338.084 599.138L391.952 568.036V630.236L338.084 661.335V599.138ZM282.233 437.912L336.099 406.812V469.01L282.233 500.109V437.912ZM280.248 565.751L262.626 575.924L226.383 596.849V534.651L280.25 503.552L280.248 565.751ZM224.398 661.335L197.465 645.786L170.532 630.238V568.044L197.465 583.593L224.398 599.142V661.335ZM170.532 503.555L224.398 534.653V596.849L197.465 581.3L170.532 565.751V503.555ZM112.693 530.328C112.014 530.507 111.403 530.854 110.921 531.336L58.827 501.259V439.061L112.693 470.161V530.328ZM112.693 341.178V403.378L58.827 372.276V312.113C59.5079 311.932 60.1193 311.587 60.5997 311.103L112.693 341.178ZM57.8345 373.997L111.701 405.099L58.829 435.625V435.623L57.8365 436.195L56.8439 435.623V435.625L3.9701 405.097L57.8345 373.997ZM2.97758 470.163L56.8439 439.063V501.261L2.97758 532.361V470.163ZM2.97758 535.799L56.8439 566.9V629.098L2.97758 597.998V535.799ZM57.8365 565.181L3.9701 534.08L28.4398 519.952L57.8345 502.982L109.942 533.065C109.855 533.391 109.791 533.728 109.791 534.082C109.791 534.435 109.853 534.77 109.942 535.098L57.8365 565.181ZM114.678 537.833C115.359 537.653 115.971 537.307 116.453 536.823L168.547 566.898V629.092L114.678 597.994V537.833ZM114.678 663.63L168.547 632.532V694.726L114.678 725.824V663.63ZM58.8727 763.546C60.5401 763.105 61.7768 761.6 61.7768 759.792C61.7768 759.439 61.7153 759.103 61.6259 758.778L112.737 729.268V791.463L58.8707 822.561L58.8727 763.546ZM112.739 855.95L58.8727 887.048V824.854L112.739 793.756V855.95ZM56.8003 952.67L2.93192 983.769V921.572L56.8003 890.47V952.67ZM58.8727 889.342L112.739 858.245V920.438L58.8727 951.536V889.342ZM170.532 824.854L222.626 794.78C223.106 795.265 223.719 795.61 224.398 795.791V855.952L170.532 887.05V824.854ZM168.588 890.462V951.534L114.722 920.436V858.243L168.545 889.317V890.488L168.588 890.462ZM224.398 725.824L170.532 694.726V632.532L197.465 648.081L224.398 663.63V725.824ZM226.383 661.335V599.144L257.163 581.372L280.248 568.044V627.057C278.58 627.498 277.343 629.003 277.343 630.811C277.343 631.165 277.407 631.502 277.494 631.828L226.383 661.335ZM282.233 694.73V634.565C282.914 634.384 283.525 634.039 284.005 633.555L336.099 663.63V723.795C335.42 723.974 334.809 724.321 334.326 724.803L282.233 694.73ZM282.233 760.368L334.326 730.292C334.807 730.776 335.418 731.124 336.099 731.302V791.461L335.106 792.035L335.108 792.037L282.233 822.563V760.368ZM282.233 889.342L336.099 858.245V920.438L282.233 951.536V889.342ZM336.099 855.95L282.233 887.048V824.854L336.099 793.756V855.95ZM226.296 983.769V924.033C227.963 923.592 229.2 922.088 229.2 920.279C229.2 920.154 229.174 920.037 229.162 919.916L280.16 890.47V952.67L226.296 983.769ZM336.012 1048.26L282.145 1017.16V954.962L336.012 986.062V1048.26ZM391.952 949.501C391.272 949.682 390.66 950.027 390.18 950.512L338.084 920.438V858.246L391.952 889.346V949.501ZM338.084 855.95V793.752L391.952 824.854V887.048L338.084 855.95ZM392.945 823.135L339.077 792.033L392.941 760.935L393.937 761.511V761.507L446.811 792.033L392.945 823.135ZM504.646 760.933L558.512 792.033L505.638 822.561L504.646 823.135L503.653 822.561L450.779 792.033L504.646 760.933ZM449.789 857.099L503.655 825.999V888.197L449.789 919.297V857.099ZM447.804 1049.42L393.937 1080.52V1018.33L447.804 987.229V1049.42ZM449.789 984.937V922.737L503.655 953.837V1016.04L449.789 984.937ZM506.633 1017.76L557.732 988.251C558.212 988.736 558.826 989.081 559.505 989.262V1048.28L506.633 1017.76ZM561.49 981.756V922.737L615.358 953.835V1016.03L564.245 986.521C564.332 986.195 564.394 985.861 564.394 985.508C564.394 983.702 563.159 982.197 561.49 981.756ZM617.343 1080.5V1018.32L671.209 987.223V1049.41L617.343 1080.5ZM727.059 1017.18L673.192 1048.27V986.078L727.059 954.98V1017.18ZM729.044 952.687V890.49L782.91 921.59V981.756C782.231 981.937 781.62 982.281 781.14 982.765L729.044 952.687ZM1512 577.866L1456.15 545.619L1510.51 514.231L1511.01 513.945V449.453L1512 448.881L1511.01 448.307V383.815L1456.17 352.156L1510.55 320.758L1511.05 320.474V253.695L1453.71 286.8L1453.21 287.086V350.452L1453.17 350.427V416.066L1401.08 446.142C1400.6 445.657 1399.99 445.31 1399.3 445.131V319.341L1343.45 287.096V222.607L1290.35 191.952C1290.44 191.622 1290.51 191.283 1290.51 190.928C1290.51 190.574 1290.44 190.237 1290.35 189.911L1342.96 159.544L1343.45 159.258V95.939L1397.28 127.011V257.133L1451.35 225.912C1452.06 226.625 1453.04 227.066 1454.12 227.066C1456.27 227.066 1458.02 225.321 1458.02 223.169C1458.02 221.362 1456.78 219.856 1455.11 219.415V94.8373L1510.56 62.8263L1511.06 62.5405V-4.2466L1455.11 28.0522V27.9887L1398.27 60.8055L1341.42 27.9887V93.6463L1286.11 125.58L1285.62 125.866V187.174C1283.95 187.615 1282.71 189.121 1282.71 190.928C1282.71 192.734 1283.95 194.239 1285.62 194.681V256L1341.47 288.243V351.586L1287.6 382.684V319.331L1231.75 287.084V285.936L1230.76 286.51L1229.77 285.938V287.082L1174.41 319.043L1173.92 319.329V386.114L1227.99 354.893C1228.7 355.606 1229.68 356.05 1230.76 356.05C1231.84 356.05 1232.82 355.608 1233.53 354.893L1285.62 384.965V515.099L1342.46 482.28L1397.32 513.949L1452.18 545.621L1398.32 576.72L1397.32 576.147V577.294L1396.33 577.868L1397.32 578.442V642.934L1453.17 675.179V735.344C1451.51 735.785 1450.27 737.289 1450.27 739.098C1450.27 741.25 1452.02 742.994 1454.17 742.994C1456.32 742.994 1458.06 741.25 1458.06 739.098C1458.06 738.744 1458 738.407 1457.91 738.079L1510.51 707.71L1511.01 707.424V640.641L1455.16 672.888V610.689L1512 577.866ZM1455.2 288.231L1509.07 257.133V319.327L1455.2 350.425V288.231ZM1509.02 512.8L1455.16 543.9V481.702L1509.02 450.602V512.8ZM1509.02 447.164L1455.16 416.064V353.865L1509.02 384.966V447.164ZM1454.16 417.783L1508.03 448.883L1483.56 463.011L1454.17 479.983L1402.06 449.899C1402.15 449.574 1402.21 449.238 1402.21 448.883C1402.21 448.528 1402.15 448.192 1402.06 447.867L1454.16 417.783ZM1397.32 384.974V445.131C1396.64 445.312 1396.03 445.658 1395.54 446.144L1370.39 431.619L1343.45 416.07V353.877L1370.39 369.426L1397.32 384.974ZM1399.26 127.011L1453.13 95.9132V158.109L1399.26 189.207V127.011ZM1399.26 253.695V191.501L1453.13 160.404V219.417C1451.46 219.86 1450.22 221.364 1450.22 223.171C1450.22 223.524 1450.29 223.862 1450.38 224.187L1399.26 253.695ZM1455.2 30.2933L1509.07 -0.806496V61.3931L1455.2 92.4929V30.2933ZM1453.13 93.6204L1399.26 124.718V62.5246L1453.13 31.4268V93.6204ZM1343.41 31.4268L1397.28 62.5246V124.718L1343.45 93.6463V92.4751L1343.41 92.4989V31.4268H1343.41ZM1341.47 95.9132V158.109L1289.38 188.182C1288.9 187.698 1288.28 187.353 1287.6 187.172V127.011L1341.47 95.9132ZM1287.6 254.85V194.679C1288.28 194.501 1288.89 194.157 1289.37 193.677L1341.47 223.754V285.948L1287.6 254.85ZM1397.32 320.486V382.68L1370.39 367.131L1343.46 351.582V289.386L1397.32 320.486ZM1175.9 382.672V320.474L1229.77 289.374V348.398C1228.1 348.839 1226.86 350.343 1226.86 352.152C1226.86 352.505 1226.92 352.838 1227.01 353.164L1175.9 382.672ZM1231.75 348.398V289.376L1285.62 320.476V382.67L1234.51 353.162C1234.59 352.838 1234.65 352.503 1234.65 352.15C1234.65 350.345 1233.42 348.839 1231.75 348.398ZM1287.6 384.974L1341.47 353.877V416.066L1287.6 447.166V384.974ZM1287.6 449.461L1341.47 418.363V480.561L1287.6 511.66V449.461ZM1343.45 480.557V418.363L1370.39 433.912L1394.57 447.871C1394.48 448.196 1394.42 448.53 1394.42 448.883C1394.42 450.69 1395.65 452.194 1397.32 452.637V511.654L1343.45 480.557ZM1399.31 452.635C1399.99 452.454 1400.6 452.109 1401.08 451.625L1453.17 481.7V543.898L1399.31 512.798V452.635ZM1453.17 547.338L1454.16 546.766L1455.16 547.34V547.338L1508.03 577.866L1454.17 608.966L1400.3 577.866L1453.17 547.338ZM1399.31 579.587L1453.17 610.687V672.884L1399.31 641.785V579.587ZM1509.02 644.077V706.275L1456.93 736.35C1456.45 735.866 1455.84 735.521 1455.16 735.342V675.177L1509.02 644.077ZM1178.8 255.414C1178.8 255.061 1178.74 254.723 1178.65 254.398L1231.26 224.028L1231.75 223.743V94.8333L1283.53 64.9364C1284.24 65.927 1285.39 66.5761 1286.7 66.5761C1288.85 66.5761 1290.6 64.8312 1290.6 62.6794C1290.6 60.873 1289.36 59.3664 1287.69 58.9257V-4.25056L1231.84 28.0006V-35.3464L1174 -68.737V-1.95187L1228.81 29.6879L1174.91 60.8055L1122.8 30.7241C1122.89 30.3985 1122.95 30.063 1122.95 29.7077C1122.95 27.5559 1121.21 25.8111 1119.05 25.8111C1116.9 25.8111 1115.16 27.5559 1115.16 29.7077C1115.16 31.5141 1116.39 33.0208 1118.06 33.4615V92.4731L1118.06 158.113L1063.2 189.782L1009.34 158.682L1063.7 127.293L1064.2 127.007V62.5186L1065.19 61.945L1064.2 61.3713V-1.97371L1119.55 -33.9311L1120.05 -34.2169V-101L1062.71 -67.8933L1062.21 -67.6095V-4.26645L1008.34 -35.3663V-36.5116L1007.35 -35.9379L950.508 -68.7588V-6.30112C949.827 -6.12048 949.214 -5.77309 948.732 -5.28874L896.64 -35.3603V-100.982L840.788 -68.735V-68.7489L783.45 -35.6442L782.954 -35.3583V27.9827L729.088 -3.11512V-4.26048L728.095 -3.68879L727.103 -4.26048V-3.11512L672.246 28.5524L615.4 -4.26247V61.3713L561.535 92.4691V29.1221L503.699 -4.26843L447.847 -36.5136V29.1261L395.754 59.1996C395.047 58.489 394.07 58.0463 392.989 58.0463C390.837 58.0463 389.092 59.7912 389.092 61.943C389.092 64.0948 390.837 65.8396 392.989 65.8396C394.07 65.8396 395.049 65.397 395.754 64.6863L447.847 94.7618V160.402L505.188 127.293L505.684 127.007V63.662L559.55 94.7599V160.394L613.627 129.173C614.107 129.657 614.721 130.004 615.4 130.183V191.491L673.238 224.88V160.394L729.09 192.639V125.856L674.233 94.1862L728.093 63.0903L784.939 95.9112V30.2754L838.805 -0.82238V125.872L783.45 157.831L782.954 158.117V224.904L837.033 193.681C837.739 194.394 838.716 194.834 839.798 194.834C841.95 194.834 843.694 193.089 843.694 190.938C843.694 189.131 842.458 187.627 840.79 187.184V127.013L896.146 95.0516L896.642 94.7658V31.4208L950.51 62.5186V122.686C948.843 123.126 947.606 124.631 947.606 126.439C947.606 126.793 947.67 127.128 947.757 127.456L895.155 157.825L894.659 158.109V224.89L951.503 192.073L1007.36 224.32L1063.21 192.075L1119.06 224.32L1173.92 192.649V251.662C1172.25 252.103 1171.02 253.608 1171.02 255.416C1171.02 257.568 1172.76 259.313 1174.91 259.313C1177.06 259.311 1178.8 257.566 1178.8 255.414ZM1229.77 222.597L1177.67 252.671C1177.19 252.186 1176.58 251.841 1175.9 251.66V191.501L1176.89 190.928L1229.77 160.402V222.597ZM1120.05 95.9132L1173.92 127.011V189.209L1120.05 158.109V95.9132ZM1175.9 127.011L1229.77 95.9132V158.109L1175.9 189.207V127.011ZM1229.77 93.6204L1175.9 124.718V62.5246L1229.77 31.4268V93.6204ZM1285.7 -0.806496V58.9316C1284.04 59.3723 1282.8 60.877 1282.8 62.6834C1282.8 62.8085 1282.83 62.9256 1282.84 63.0487L1231.84 92.4929V30.2933L1285.7 -0.806496ZM1175.99 -65.2988L1229.85 -34.199V27.9986L1175.99 -3.10122V-65.2988ZM1120.05 33.4615C1120.73 33.2808 1121.34 32.9354 1121.82 32.4511L1173.92 62.5266V124.718L1120.05 93.6204V33.4615ZM1007.35 93.0448L953.488 61.945L977.957 47.8173L1007.35 30.8452L1061.22 61.945L1036.75 76.0726L1007.35 93.0448ZM952.495 1.20634C953.174 1.02571 953.785 0.680305 954.268 0.195953L1005.37 29.6978L952.495 60.2259V1.20634ZM1006.36 27.9807L955.246 -1.52905C955.334 -1.85461 955.397 -2.19205 955.397 -2.54539C955.397 -2.89874 955.334 -3.23421 955.246 -3.55976L1006.36 -33.0695V27.9807ZM1006.36 94.7638V156.963L955.246 127.452C955.334 127.126 955.397 126.791 955.397 126.439C955.397 124.633 954.163 123.128 952.493 122.686V63.664L1006.36 94.7638ZM952.495 130.191C953.176 130.01 953.787 129.665 954.27 129.179L1005.37 158.682L952.495 189.209V130.191ZM1062.21 125.862L1008.34 156.963V94.7638L1062.21 63.664V125.862ZM1064.2 -66.4601L1118.06 -97.5579V-35.3623L1064.2 -4.26447V-66.4601ZM1062.21 -1.97172V60.2259L1008.34 29.1261V-33.0715L1062.21 -1.97172ZM1005.37 -34.7906L954.268 -5.28677C953.787 -5.7731 953.174 -6.1185 952.493 -6.29914V-65.3187L1005.37 -34.7906ZM894.657 -97.542V-35.3583L840.79 -4.26048V-66.4422L894.657 -97.542ZM727.105 -0.824371V61.3693L673.238 92.4671V30.2735L727.105 -0.824371ZM617.385 -0.824371L671.253 30.2735V92.4671L644.32 76.9182L617.387 61.3693V-0.824371H617.385ZM671.253 156.954L644.32 141.405L620.14 127.446C620.229 127.12 620.291 126.785 620.291 126.429C620.291 124.623 619.054 123.116 617.387 122.676V63.66L644.32 79.209L671.253 94.7579V156.954ZM559.55 92.4671L505.684 61.3673V-0.830315L559.55 30.2695V92.4671ZM449.832 -33.0755L503.699 -1.97371V60.2239L449.832 29.1241V-33.0755ZM396.734 60.9266L448.84 30.8432L502.706 61.943L478.237 76.0706L448.84 93.0428L396.734 62.9593C396.822 62.6338 396.885 62.2963 396.885 61.943C396.885 61.5896 396.822 61.2522 396.734 60.9266ZM503.699 125.86L449.832 156.961V94.7618L503.699 63.662V125.86ZM561.535 156.954V94.7599L615.402 63.662V122.678C613.734 123.118 612.498 124.625 612.498 126.431C612.498 126.785 612.561 127.12 612.648 127.448L561.535 156.954ZM671.253 221.444L617.385 190.346V130.185C618.066 130.006 618.677 129.659 619.159 129.175L644.32 143.699L671.253 159.248V221.444ZM727.105 189.201L673.238 158.101V95.9052L727.105 127.003V189.201ZM782.954 92.4731L729.088 61.3733V-0.824371L782.954 30.2754V92.4731ZM784.939 27.9827V-34.211L838.805 -65.3088V-3.11512L784.939 27.9827ZM894.657 -33.0537V29.1281L840.79 60.2259V-1.95585L894.657 -33.0537ZM784.939 221.462V159.262L838.805 128.162V187.182C837.138 187.623 835.901 189.127 835.901 190.936C835.901 191.291 835.965 191.626 836.052 191.952L784.939 221.462ZM894.657 93.6184L840.79 124.72V62.5206L894.657 31.4208V93.6184ZM896.642 -33.0656L947.755 -3.55779C947.667 -3.23223 947.604 -2.89675 947.604 -2.54539C947.604 -0.738998 948.841 0.767647 950.508 1.20833V60.2259L896.642 29.1281V-33.0656ZM896.642 159.258L948.735 129.183C949.216 129.667 949.829 130.012 950.508 130.193V190.354L896.64 221.452V159.258H896.642ZM1007.35 222.029L953.486 190.93L1006.36 160.404L1007.35 159.83L1008.34 160.404L1061.22 190.93L1007.35 222.029ZM1065.19 190.93L1119.05 159.83L1172.92 190.93L1119.05 222.029L1065.19 190.93Z" fill="#CFB0F5"/>
</svg>
