<svg width="256" height="152" viewBox="0 0 256 152" fill="none" xmlns="http://www.w3.org/2000/svg">
<g style="mix-blend-mode:exclusion">
<mask id="mask0_610_3614" style="mask-type:luminance" maskUnits="userSpaceOnUse" x="0" y="0" width="256" height="152">
<path d="M0.828857 151.157H255.206V0.0536652H0.828857V151.157Z" fill="white"/>
</mask>
<g mask="url(#mask0_610_3614)">
<path d="M30.6331 151.157H30.5125C26.4174 151.131 22.6524 148.444 21.4421 144.311L4.12212 85.2117L6.67243 85.7319L6.80662 85.5522C6.93879 85.3872 7.09371 85.1842 7.2003 84.9547L7.2279 84.8976L5.87523 84.7686L5.41874 84.7263L4.52775 84.6142L4.39102 84.7929L4.23125 85.0076L4.11345 85.1821L1.21461 75.2909C0.960614 74.4227 0.835413 73.5461 0.828857 72.6832V72.5352C0.860686 68.4461 3.54508 64.688 7.67286 63.4783L51.8689 50.5269L51.9134 50.7426L52.0522 50.6961L52.1088 50.8907L52.4124 50.7765L52.3008 50.6147L54.4497 49.9136C54.4339 49.8692 54.4166 49.8269 54.3972 49.7856L65.9958 46.386C66.6279 46.7995 67.2446 47.0554 67.9332 47.0554C68.2127 47.0554 68.504 47.0131 68.8129 46.9232C69.841 46.6218 70.7787 45.8139 72.0356 44.6169L222.779 0.439621C223.649 0.184784 224.527 0.0600128 225.392 0.0536652H225.528C229.62 0.0832825 233.381 2.76808 234.592 6.89841L254.819 75.919C255.527 78.3341 255.233 80.8064 254.181 82.8885C254.168 82.8356 254.155 82.7817 254.138 82.7278L254.099 82.6368C253.691 81.903 253.085 81.5815 252.511 81.4536L252.508 81.4557L252.502 81.4525C252.27 81.4018 252.044 81.3838 251.838 81.3838C251.687 81.3838 251.545 81.3933 251.422 81.407L251.404 81.6629L248.576 80.118L249.022 81.6386L248.953 81.6365L249.475 83.2618C249.942 84.7221 250.297 85.8313 250.73 86.672C250.01 87.1214 249.217 87.4809 248.361 87.7315L246.087 88.3988L245.732 87.9853L245.577 88.0646L245.338 88.1894L245.629 88.5331L147.095 117.408L147.01 117.379V117.377L146.989 117.374L147.009 117.373H147.01L147.011 117.37L146.669 117.266L146.785 117.153L146.791 117.15L146.794 117.148L146.642 117.231L146.42 117.351L146.134 117.343L145.171 117.311L145.15 117.381L145.138 117.424C145.092 117.626 145.106 117.81 145.172 117.972L85.9514 135.328L85.611 134.901C85.3312 135.048 84.8768 135.148 84.3225 135.189L78.6065 135.609L82.4261 136.361L33.2547 150.77C32.3812 151.026 31.5005 151.152 30.6331 151.157ZM27.2761 140.297L27.8986 142.421C28.2547 143.637 29.3699 144.427 30.5782 144.427C30.838 144.427 31.1015 144.39 31.363 144.314L51.0271 138.551L52.3008 139.649L52.4277 139.563C52.5611 139.467 52.678 139.368 52.7842 139.261L52.7862 139.258L52.8028 139.244L52.8077 139.234L52.8172 139.226L52.8296 139.213V139.211C53.0692 138.959 53.2365 138.683 53.3274 138.389L53.3281 138.386V138.377L53.3335 138.363V138.361C53.3803 138.197 53.4042 138.027 53.4029 137.855L135.664 113.747L136.125 114.233L136.069 114.261L136.068 114.267C136.187 114.228 136.304 114.185 136.412 114.138L136.417 114.137L136.113 113.623L137.836 113.234L137.808 113.119L148.713 109.924L148.853 110.398L148.977 110.826L149.001 111.081L148.995 110.89L149.007 111.082L148.999 110.899L149.002 110.909L149.001 110.903L149.008 110.929L149.005 110.92L149.045 111.074L149.024 110.982L149.05 111.072L149.001 110.891L148.998 110.809L150.155 109.847C150.003 109.752 149.828 109.688 149.636 109.653L191.109 97.499L191.103 97.5043C190.995 97.5847 190.893 97.6682 190.804 97.7496L192.352 98.5956L192.434 98.7711L192.585 98.7182L192.873 98.8758L192.895 98.8599L192.954 98.8134L192.751 98.659L192.783 98.6484L192.978 98.7954L192.91 98.7383L192.987 98.7891L192.803 98.6421L194.916 97.9029L194.839 97.7486L194.837 97.7433L194.835 97.7412C194.537 97.2188 193.919 96.9185 193.137 96.9047L246.469 81.2759C247.947 80.8424 248.795 79.289 248.362 77.8118L230.112 15.5397L230.214 15.4467L230.1 15.5006L228.133 8.79015C227.777 7.5741 226.662 6.78314 225.455 6.78314C225.196 6.78314 224.933 6.82016 224.673 6.89629L99.9275 43.4538L98.7019 43.4072L97.3294 43.3586L97.23 43.3967L97.4584 44.177L97.4489 44.1802L97.2057 43.4019L97.4066 44.1918L25.7173 65.2009L24.4484 64.2164L24.6672 65.5086L9.5646 69.935C8.0879 70.3675 7.23741 71.9219 7.67117 73.3991L27.0655 139.578L26.1439 139.479L26.1431 139.482L26.0449 139.653C25.9437 139.817 25.8206 140.02 25.7515 140.242L27.2761 140.297ZM133.096 119.896L132.391 120.889L132.074 121.277L132.18 121.333L132.207 121.346L132.282 121.39L132.508 121.502L133.121 120.846L133.731 120.191L133.597 120.12L133.411 120.016L133.408 120.017L133.403 120.013L133.179 119.923L133.139 119.909L132.616 120.596L133.096 119.896ZM133.168 118.751L134.98 119.135C135.161 118.845 135.222 118.545 135.164 118.258V118.256L135.153 118.214V118.213L135.155 118.201L135.153 118.195L135.152 118.193L135.143 118.164L135.065 117.97L133.708 118.506L135.053 117.952L133.705 118.497L133.114 118.737L133.111 118.739H133.118L132.852 118.844L132.865 118.84L132.701 118.902L132.359 119.043L132.884 118.835L133.168 118.751ZM137.308 116.411L136.087 117.72L136.199 117.798L136.39 117.935L136.445 117.969H136.448L137.149 117.361L137.853 116.751L137.744 116.672L137.519 116.515L137.513 116.512L137.511 116.509V116.508L137.308 116.411ZM160.377 108.949L161.875 109.646C162.228 109.294 162.352 108.868 162.232 108.44V108.436L162.208 108.367V108.365L161.368 108.633L162.205 108.357L160.371 108.944L160.373 108.946L160.377 108.948L160.341 108.957L160.377 108.949ZM228.22 87.1002L227.071 88.4368L227.074 88.4389L227.124 88.4855L227.051 88.6906L226.991 88.7107L227.44 90.0452C227.557 90.0082 227.666 89.9659 227.767 89.9225C228.747 89.508 229.249 88.7371 229.076 87.9134L229.062 87.8404L229.026 87.7738C228.846 87.4598 228.58 87.2303 228.22 87.1002ZM19.8416 60.7205L20.0184 61.4015L20.1079 61.4407L21.5417 60.2352L21.5404 60.2341L21.4247 60.1707C21.1237 60.0142 20.7792 59.9359 20.4124 59.9359C20.1712 59.9359 19.92 59.9698 19.6652 60.0385L19.8416 60.7205ZM129.567 31.1982C129.562 31.1982 129.557 31.1982 129.551 31.1982C129.049 31.2034 128.5 31.3494 127.983 31.6349L127.265 32.023L127.237 32.6162L127.209 32.7854C127.179 32.9619 127.132 33.1851 127.161 33.4124L127.164 33.4399L128.429 33.1576L128.439 33.1544C128.519 33.1999 128.611 33.2411 128.708 33.2696C128.574 33.2295 128.508 33.1713 128.486 33.1438L128.876 33.0687L128.721 33.2728H128.723L128.738 33.276L128.778 33.2855L128.921 33.0571L129.163 33.0106L129.364 33.2411L129.287 33.2707C129.196 33.2971 129.091 33.3098 128.989 33.3098C128.968 33.3098 128.948 33.3098 128.928 33.3077L128.807 33.2908C128.925 33.3183 129.053 33.332 129.187 33.332C129.366 33.332 129.556 33.3067 129.747 33.2506C130.468 33.0391 130.95 32.4871 130.884 31.9775L131.074 31.8855L131.023 31.8146L130.872 31.896L130.87 31.8897L131.018 31.8104C130.817 31.5587 130.537 31.3843 130.2 31.2838H130.197L130.157 31.2753V31.2722L130.141 31.2701L130.117 31.2626L130.09 31.2574L130.071 31.2542V31.2521C129.909 31.2151 129.745 31.1982 129.567 31.1982ZM159.515 19.724L159.487 19.7694L159.647 19.8149L160.566 20.7856C160.761 20.6704 160.938 20.5318 161.086 20.3722L161.166 20.2855L161.263 20.1512L161.356 20.0095L161.474 19.7388L159.638 19.6626L159.595 19.6394L159.578 19.6584H159.556L159.541 19.6848L159.524 19.7123V19.7145V19.7155L159.526 19.7134L159.575 19.7345L159.568 19.7325L159.578 19.7388L159.548 19.7261L159.593 19.7536L159.515 19.724ZM178.534 18.8252L178.535 18.8283L179.843 17.5562L179.837 17.5552L179.841 17.5531L179.703 17.4854C179.572 17.4188 179.43 17.3458 179.255 17.2824V17.2802L179.244 17.276L179.232 17.2729L179.223 17.2708V17.2686L179.097 17.2295L178.075 18.6116L178.078 18.6105L178.085 18.6147C178.163 18.638 178.262 18.6888 178.364 18.7416L178.531 18.8262L178.534 18.8252ZM30.5782 142.839C30.0564 142.839 29.5745 142.499 29.4195 141.973L28.8012 139.864C28.8181 139.832 28.8338 139.801 28.8486 139.771L28.8466 139.769L28.771 139.76L9.19324 72.9518C9.00702 72.3153 9.37374 71.6438 10.0112 71.4577L24.9341 67.0842L25.0555 67.8021L25.0568 67.9354L25.0997 67.8751L25.165 67.8265L25.189 67.8497L25.4562 68.1966L26.4592 69.4824L26.6781 69.3587C27.5918 68.8141 28.0469 67.9999 27.8986 67.1412L27.8954 67.1032L27.8148 66.8304L27.2633 66.4021L40.6472 62.479L41.9848 63.6708C42.756 63.1706 43.1492 62.4812 43.091 61.7632L225.119 8.41898C225.231 8.3862 225.345 8.37035 225.456 8.37035C225.977 8.37035 226.457 8.71191 226.612 9.2364L228.646 16.1816L226.116 17.3659L226.053 17.3501L226.018 17.3701L224.335 11.6262L199.8 18.8156L199.424 18.7522L199.709 18.8431L199.425 18.7533L199.424 18.7554L199.338 18.8505L199.225 18.9838L133.513 38.2417L133.384 38.2723L131.701 38.6509L131.732 38.7641L73.2149 55.9124C73.2029 55.9082 73.1909 55.9029 73.179 55.8987L73.1748 55.8965L73.1699 55.8944L73.1603 55.8912C73.024 55.8394 72.865 55.7961 72.6709 55.7813L72.5462 56.108L12.3995 73.7354L15.2335 83.4045L15.2256 83.4384L15.2429 83.4373L31.6976 139.585L37.8814 137.772L38.8261 137.872H38.8277L38.9022 137.741L39.0294 137.506L38.8628 137.485L241.088 78.221L241.381 78.6683L241.919 78.4166L242.075 78.5213L243.099 77.9461L244.405 76.9796L244.025 76.7078L245.538 74.4291L243.081 75.5954L226.51 19.0514L229.252 19.0134L227.443 17.9538L228.805 16.7209L235.625 39.9939C235.484 39.9452 235.341 39.905 235.199 39.8744H235.196L235.19 39.8723C234.851 39.7982 234.524 39.7728 234.226 39.7728C234.009 39.7728 233.807 39.7866 233.63 39.8056L233.559 40.8493L233.488 41.8909L233.513 41.8888C233.556 41.8835 233.611 41.8782 233.674 41.8782C233.947 41.8782 234.383 41.9765 234.764 42.6258C234.821 42.8479 234.824 43.0509 234.764 43.1894L234.751 43.2179L234.748 43.219L236.663 43.5341L246.839 78.258C247.027 78.8946 246.662 79.566 246.023 79.7522L127.155 114.588L127.175 114.4L126.655 114.472L126.492 114.496L125.188 114.679V114.68L125.187 114.685L125.182 114.718L125.178 114.735L125.159 114.813L125.11 115.053L125.091 115.193L52.6007 136.437C52.3798 136.271 52.1374 136.147 51.8705 136.063L51.2748 136.825L51.2666 136.827L51.8329 136.052C51.5801 135.973 51.3046 135.933 51.0171 135.933C51.008 135.933 50.9989 135.933 50.9894 135.933L50.7172 136.989L30.9169 142.791C30.8041 142.824 30.69 142.839 30.5782 142.839ZM108.82 119.386L108.492 119.799L108.733 119.513L108.827 119.404L108.828 119.407L108.84 119.392L108.847 119.417L108.851 119.446L108.963 119.793L108.926 119.613L108.906 119.542L109.036 119.768L108.864 119.363L109.662 118.47L109.585 118.44L109.459 118.404L109.449 118.401C109.338 118.377 109.221 118.364 109.103 118.364C108.972 118.364 108.836 118.379 108.702 118.409L108.617 118.428L108.332 118.528L108.819 119.384L108.82 119.386ZM135.118 110.803L133.952 112.135L134.254 112.248L134.638 112.392L135.219 111.727L135.223 111.724L135.807 111.058L135.803 111.059L135.118 110.803ZM151.363 104.555L149.8 105.672L149.813 105.687L149.859 105.761L149.874 105.8L149.875 105.802L151.809 105.193C151.724 104.933 151.574 104.72 151.363 104.555ZM99.9857 45.7896C99.6452 45.7896 99.2666 45.8795 98.906 46.0561L98.5317 46.2401L98.3963 46.5446L98.3223 46.6747L98.2018 46.8968V46.8999L98.1975 46.9042L98.1172 47.103L98.1151 47.1188L99.4453 47.1368L100.051 47.1484L100.126 47.0141L100.274 46.7381V46.7371L99.808 46.6906L100.481 45.8647C100.33 45.8139 100.163 45.7896 99.9857 45.7896ZM148.862 110.391L148.716 109.923L148.736 109.917L148.862 110.391ZM148.98 110.365L148.941 109.857L148.964 109.85L148.98 110.365ZM253.035 84.6459C252.949 84.4123 252.859 84.1542 252.764 83.8698L253.524 83.9946C253.371 84.2187 253.208 84.4355 253.035 84.6459Z" fill="#1E2936"/>
<path d="M58.1256 117.14L55.4502 108.012L59.4164 106.849L54.3196 89.4572L54.4998 88.0698L54.539 87.889L54.57 87.7442L54.5898 87.6585C54.6138 87.5475 54.6229 87.4407 54.6229 87.3381L53.8732 87.446L53.7356 87.465L53.7129 87.3867L52.6277 83.6847L48.7884 84.8098L46.1572 75.8333L62.7118 70.9818C62.8977 70.9268 63.1008 70.8676 63.321 70.8031C63.5416 70.7386 63.7246 70.6846 63.8679 70.6423C64.0117 70.6011 64.2195 70.5398 64.4908 70.4605C65.5979 70.1549 66.6999 69.8324 67.7973 69.4908C68.8941 69.1524 69.9858 68.8722 71.0729 68.6554C72.1592 68.4387 73.2209 68.2462 74.2588 68.0812C75.0965 67.9469 75.9206 67.8793 76.7319 67.8793C76.9256 67.8793 77.118 67.8835 77.3101 67.8909C78.3055 67.93 79.2569 68.0474 80.1603 68.242C81.0648 68.4376 81.9384 68.7802 82.7803 69.2698C83.6237 69.7594 84.399 70.3653 85.1079 71.0865C85.8167 71.8087 86.4754 72.7244 87.0866 73.8337C87.2188 74.0758 87.3478 74.3254 87.4726 74.5823L87.2188 74.7631L87.2378 74.7864L87.3055 74.89L87.3267 74.9503L87.3288 74.9524L87.6069 74.8647C88.0002 75.7138 88.3524 76.6432 88.6611 77.6531C89.4299 80.1518 89.6879 82.4274 89.4331 84.4809C89.1793 86.5344 88.4507 88.3173 87.2463 89.8305C86.5611 90.6912 85.7691 91.4811 84.8695 92.2023L83.2004 91.6323L83.1995 91.6292L83.1694 91.6249H83.1983L83.2004 91.6239L83.2024 91.6186L82.71 91.4674L82.876 91.3056L82.8864 91.3024L82.8893 91.2982L82.876 91.3056L82.6674 91.4187C82.5614 91.4769 82.4527 91.534 82.3506 91.5932L81.9384 91.5805L80.5506 91.5329L80.5175 91.6344L80.5031 91.6968C80.3482 92.3778 80.6641 92.9256 81.3189 93.2311V93.2333L81.325 93.2322C81.6823 93.4003 82.1437 93.4913 82.6852 93.4945L83.0182 93.4955C82.8942 93.5716 82.769 93.6457 82.6427 93.7186C80.7777 94.7993 78.548 95.7193 75.9553 96.4796C74.7512 96.8328 73.4542 97.1214 72.0664 97.3435L72.9048 100.205C72.9028 100.205 72.9007 100.204 72.8987 100.204L72.0313 101.622L72.0436 101.624C72.0965 101.642 72.2192 101.727 72.3522 102.119C72.3596 102.344 72.3464 102.494 72.3133 102.566L72.3092 102.574L72.3059 102.581L73.1837 102.788L74.0746 102.972L74.1791 102.784L74.182 102.774V102.772C74.2242 102.679 74.258 102.585 74.2816 102.492L77.3432 101.595L80.0186 110.724L74.4745 112.348L75.0981 111.913L75.0837 111.899L75.0796 111.9L75.0755 111.896L75.0747 111.893L75.0693 111.892L75.0651 111.885H75.0619L75.056 111.879L74.8463 111.662L74.7553 111.564H74.7533L74.7525 111.563L74.0181 111.988L73.5967 111.413L72.4855 111.955L73.1328 112.64L73.2084 112.72L58.1256 117.14ZM63.984 109.434L62.9398 110.808C62.9493 110.811 63.0306 110.863 63.1352 111.125L64.0943 110.799L65.0547 110.471C64.9151 110.12 64.656 109.628 63.984 109.434ZM76.8301 106.924L76.8558 107.064L76.1465 107.239L75.1642 107.479L75.1663 107.494C75.2799 108.034 75.8388 108.359 76.617 108.359C76.6959 108.359 76.7768 108.356 76.8599 108.349L77.0664 108.315L77.2572 108.266L77.2515 108.241L77.0602 107.592L77.0589 107.588L77.0643 107.587L77.2626 108.264L77.4175 108.214L76.9796 107.163L76.9859 107.032L76.928 107.045L76.8743 106.913L76.9012 107.05L76.8793 107.057L76.8372 106.922L76.8413 106.948L76.8301 106.924ZM60.4573 98.679C59.7745 98.9349 59.3379 99.4446 59.2644 100.079L61.0356 99.9321L60.7535 99.3209L60.4573 98.679ZM63.1546 95.2582L62.1385 96.689L61.682 97.2494L61.834 97.3287L61.8741 97.3488L61.9807 97.4101C62.091 97.4714 62.2025 97.5264 62.3078 97.573L63.1897 96.6276L64.0696 95.6833L63.8774 95.5797C63.7948 95.5342 63.704 95.4824 63.6061 95.4317L63.6007 95.4327L63.5966 95.4285C63.5008 95.3809 63.3921 95.3386 63.2723 95.2984L63.2157 95.2794L62.4627 96.2692L63.1546 95.2582ZM66.2806 95.3999L68.0651 95.77C68.2724 95.4338 68.3344 95.0457 68.2476 94.6206L68.2323 94.536L68.1877 94.4673C67.7763 93.7683 67.1323 93.413 66.2727 93.413C66.267 93.413 66.2612 93.413 66.2554 93.413L65.8787 94.8786L65.9333 94.8829C66.0798 94.9125 66.2104 95.0637 66.2939 95.1885C66.303 95.2974 66.2939 95.364 66.2864 95.3915L66.2785 95.401H66.2773H66.2781H66.2785L66.2806 95.3999ZM69.2203 90.2365L67.4636 92.124L67.6239 92.2393L67.8994 92.4339L67.9778 92.4804L67.9845 92.4825L68.996 91.6048L70.0085 90.7282L69.8503 90.613C69.749 90.5389 69.6487 90.4596 69.524 90.3867L69.5199 90.3824L69.5136 90.3803V90.3782C69.4248 90.3264 69.3319 90.2788 69.2203 90.2365ZM70.7499 78.6228C70.1823 78.6228 69.5921 78.7126 68.9787 78.8924L66.8419 79.5184L69.6367 89.0533L70.6792 88.7477C74.5273 87.6204 75.9524 85.3533 74.9536 81.9463C74.5067 80.4204 73.7289 79.4327 72.6218 78.9833C72.0287 78.7433 71.4046 78.6228 70.7499 78.6228ZM66.0646 82.1556L64.3884 84.077L64.8192 84.2409L65.3727 84.4481L66.2133 83.4891L66.2161 83.4869L67.0601 82.5278L67.0551 82.5289L66.0646 82.1556ZM58.8319 81.4715L58.6015 81.5392L58.416 81.6703L58.549 81.775L57.8737 82.4443L58.1339 82.6177L58.8815 83.1623L59.4598 82.752L60.8704 82.3386L59.7881 81.5751L59.6733 81.4873C59.5486 81.3922 59.4073 81.2885 59.2284 81.1944L59.2243 81.1934L59.2202 81.1902L59.1645 81.1659L58.8369 81.4895L58.8319 81.4715ZM86.0694 82.5596L86.063 82.2846L86.0778 82.5596L86.0662 82.2963L86.0704 82.3111L86.0673 82.3047L86.0778 82.3396L86.0757 82.3259L86.1339 82.5479L86.1011 82.4168L86.1381 82.5458L86.0673 82.2857L86.0641 82.1662L87.7317 80.781C87.3891 80.5684 86.964 80.4595 86.504 80.4595C86.3411 80.4595 86.173 80.4733 86.0038 80.5008L86.0345 81.5286L85.9615 80.5092L85.7754 80.5462L85.6083 80.5885L85.8706 81.5656L85.5682 80.6002L85.8537 81.573L86.0345 82.1895L86.0694 82.5596ZM74.4621 80.2248L75.0003 80.7514C75.3357 80.5483 75.5785 80.2967 75.7219 80.0154V80.0122L75.7248 80.008C75.8549 79.7532 75.8987 79.474 75.8569 79.1874L75.8429 79.1176L75.8119 79.05C75.7024 78.8268 75.5566 78.6492 75.375 78.5181L75.1518 78.3891L73.8458 79.659L73.8825 79.7056L73.8755 79.751L73.8941 79.7267L73.9217 79.7743L73.9808 79.7521L74.4621 80.2248ZM65.2587 76.7226C65.2013 76.7226 65.1439 76.7247 65.0877 76.7278L65.0774 76.7289C64.9287 76.7384 64.7841 76.7543 64.6408 76.7744L64.495 76.7923L64.243 76.8791C64.0861 76.934 63.8989 76.9975 63.713 77.0821L63.7073 77.0842L63.4748 77.2047L64.5004 78.2854L64.5012 78.2844L64.5103 78.2791L64.7407 78.1966L64.8523 78.1892L64.8688 78.1871L64.8874 78.1469L64.8956 78.1448L64.8915 78.1374L65.509 76.7352L65.4408 76.7289L65.4359 76.7278L65.4243 76.7289L65.4161 76.7268L65.4107 76.7278C65.3607 76.7236 65.3099 76.7226 65.2587 76.7226Z" fill="#1E2936"/>
<path d="M97.7976 105.514L95.1223 96.3849C95.8688 96.1671 96.5107 95.9059 97.0468 95.6013C98.2755 94.8918 98.9798 93.809 99.1616 92.3582C99.2293 91.8961 99.2304 90.7086 99.1659 88.7957L98.4806 70.2473L93.0888 71.8271L90.459 62.8506L115.734 55.4433L132.305 83.0592C132.594 83.5445 132.825 83.9114 132.999 84.1546C133.171 84.3989 133.381 84.5988 133.63 84.7553C133.799 84.8621 133.968 84.916 134.139 84.916C134.221 84.916 134.302 84.9033 134.385 84.88L136.57 84.2392L139.247 93.367L118.242 99.5223L117.561 97.2224L118.405 97.9721C119.051 97.5523 119.314 96.9411 119.108 96.3341L118.139 96.6408L117.454 96.8586L115.542 90.4019L118.593 89.5074C117.867 87.0245 117.01 85.7831 116.026 85.7831C115.908 85.7831 115.789 85.8011 115.667 85.836L108.675 87.8863C108.454 87.9508 108.312 88.0894 108.244 88.3008C108.178 88.5155 108.164 88.7175 108.201 88.9089C108.239 89.0992 108.301 89.3762 108.389 89.7368C108.528 90.2106 108.78 90.7255 109.145 91.2828C109.453 91.7502 109.757 91.9839 110.057 91.9839C110.115 91.9839 110.171 91.9754 110.227 91.9585L112.364 91.3335L115.039 100.461L97.7976 105.514ZM106.731 100.856L106.744 100.873L106.933 101.113L107.626 102.005L107.781 101.918C108.414 101.541 108.729 100.977 108.627 100.381L108.624 100.354L108.567 100.165L106.231 98.3496L106.654 100.838L106.656 100.932L106.685 100.89L106.731 100.856ZM97.3672 97.9647L97.3503 97.9795L97.161 98.1127L97.088 98.1656L96.867 98.3284L96.7327 98.4384L98.6995 99.6471L98.7048 99.6428L98.7059 99.6449L98.9131 99.4948C99.0866 99.37 99.2822 99.2336 99.4577 99.0686L99.4619 99.0644L99.4672 99.0623L99.4683 99.0612L99.5909 98.9407V98.9375L97.3672 97.9647ZM108.555 93.1259L108.534 93.1618L108.474 93.275L108.437 93.3458L108.434 93.3522L111.129 93.6567L111.165 93.5986L109.859 93.3617L108.555 93.1259ZM125.39 88.967L125.429 89.1013L125.642 89.0209L125.564 88.9099L127.058 88.4224C126.881 87.9392 126.375 87.6664 125.707 87.6664C125.538 87.6664 125.359 87.6843 125.172 87.7203L124.993 87.7541L124.83 87.8313L125.152 88.3072L125.296 88.9977L125.39 88.967ZM107.359 85.5187L108.436 86.5677L108.506 86.5212C108.969 86.2166 109.499 85.6551 109.383 84.6992L109.37 84.6337L109.353 84.5819C109.245 84.2847 109.103 83.8713 108.755 83.5709H108.753L108.747 83.5646L108.741 83.5625V83.5604C108.48 83.3415 108.104 83.1829 107.551 83.1733L107.342 83.9083L107.128 84.6379C107.232 84.6834 107.338 84.9689 107.403 85.1645C107.425 85.3929 107.373 85.4955 107.357 85.5209L107.355 85.523L107.354 85.5261C107.354 85.5261 107.355 85.5251 107.357 85.5209L107.359 85.5187ZM106.562 67.5742L107.498 81.3281L113.322 79.6214L106.562 67.5742ZM102.459 79.4861L104.617 80.4917C105.124 79.9852 105.304 79.3719 105.136 78.7554L105.134 78.7533L105.133 78.7469L105.097 78.6486V78.6465L103.885 79.0303L105.093 78.6327L102.451 79.4787L102.452 79.4819L102.458 79.484L102.408 79.4988L102.459 79.4861ZM121.225 78.9732L119.354 79.7314C119.55 80.0962 119.905 80.3458 120.382 80.4536L121.294 79.043L121.29 79.0441H121.289L121.225 78.9732ZM100.2 68.0098L101.526 68.7447C101.687 68.5999 101.81 68.4328 101.892 68.2467V68.2435C101.984 68.032 102.025 67.7973 102.012 67.5392L102.009 67.443L101.97 67.3563C101.892 67.185 101.786 66.9534 101.598 66.7483C101.37 66.4945 101.015 66.2799 100.435 66.2799C100.399 66.2799 100.362 66.2809 100.324 66.283L100.183 67.0137L100.276 66.2851C100.099 66.2968 99.9135 66.3285 99.7284 66.3793L99.6787 66.393L99.8617 67.0719L99.6502 66.4004L99.8574 67.0782H99.8553L99.6502 66.4004L99.4736 66.4586L99.7654 67.1036L100.051 67.7285L100.047 67.7444L99.9346 67.7296L99.8669 67.7063C99.9156 67.7412 99.979 67.8639 100.028 67.9633L100.013 68.0585L100.047 68.0077L100.068 68.0563L100.072 68.0553V68.0563L100.2 68.0098Z" fill="#1E2936"/>
<path d="M143.421 92.1426L140.746 83.0138L144.484 81.9183L140.42 68.0533L140.474 68.0194H140.483L140.609 67.9983L140.604 68.0163L140.584 68.0628L140.582 68.0607L140.581 68.067L140.643 68.0184V68.0163V68.0152L140.579 67.9602L140.575 67.9581L141.117 67.6303L141.926 67.0963L141.104 67.6155L141.923 67.0931L141.097 67.6155H141.093L141.916 67.0899L141.187 67.5563L141.911 67.0836L141.089 67.6144V67.6123L141.907 67.0815L141.201 67.5362L141.9 67.0773L141.083 67.6091L141.081 67.6081L141.897 67.073L141.164 67.5531L141.891 67.0667L141.081 67.5996L141.88 67.0593L141.07 67.6017L141.068 67.5996L141.874 67.0529L141.067 67.5986L141.062 67.5965L141.87 67.0498L141.146 67.5383L141.556 67.2549L141.865 67.0424C141.574 66.8044 141.191 66.6828 140.759 66.6828C140.533 66.6828 140.294 66.7167 140.048 66.7843L137.695 58.7542L134.058 59.8201L132.094 53.116C132.168 52.9933 132.225 52.8622 132.265 52.7226C132.336 52.4816 132.355 52.2119 132.322 51.9201L132.309 51.8513C132.247 51.5965 132.12 51.109 131.679 50.7696L153.397 44.4049L156.029 53.3814L152.291 54.4769L159.079 77.641L162.664 76.5899L165.339 85.7187L143.421 92.1426ZM156.73 83.902L157.079 85.265L157.142 85.2471C157.949 85.0102 158.531 84.5354 158.732 83.9422L157.769 83.9063L156.816 83.8714L156.747 83.8988L156.943 84.5703H156.939L156.73 83.902ZM153.913 64.4887L151.932 64.7012L151.908 64.7985L151.872 64.8609L151.723 64.9645L152.593 66.1266H152.595L152.677 66.0864L152.68 66.0822C153.249 65.7798 153.636 65.3854 153.813 64.9275L152.862 64.863L153.813 64.9254C153.868 64.7869 153.904 64.6378 153.913 64.4887ZM134.667 58.9002L135.033 59.5145L135.179 59.4458L135.188 59.4394L135.199 59.4342L135.2 59.432L135.336 59.3538L135.34 59.3517L135.412 59.3041L136.097 58.9456L135.949 58.4423L135.943 58.4042C135.925 58.2667 135.888 57.9844 135.566 57.8078L135.553 57.7994L135.546 57.7983V57.7962L135.527 57.7867L134.872 58.4222L134.792 58.4994L134.509 58.1536L134.504 58.1568L134.277 58.2911L134.274 58.2964L134.24 58.3175L134.229 58.3228L134.224 58.3238L134.225 58.326L134.24 58.3175L134.293 58.2921L134.309 58.2826L134.563 58.7204L134.385 58.8927L134.621 58.823L134.667 58.9002ZM140.419 68.0511V68.048L140.461 68.0205L140.466 68.0194L140.419 68.0511Z" fill="#1E2936"/>
<path d="M171.931 83.7881L169.257 74.6593L173.401 73.4443L166.605 50.2549L162.307 51.5132L160.666 45.9131L164.483 45.6265H164.533L164.524 45.6244L164.533 45.6254L164.486 45.6117V45.6127L164.365 45.4985L164.363 45.4922L164.362 45.4837L164.45 45.4679L164.733 45.4182L166.35 45.1284L166.345 45.0809L166.332 45.0016C166.23 44.4707 165.688 44.1588 164.91 44.1588C164.835 44.1588 164.758 44.1619 164.678 44.1683L164.526 44.181L160.504 45.36L159.684 42.5621L180.791 36.3782C183.959 35.4487 186.872 34.9845 189.528 34.9845C192.728 34.9845 195.554 35.6581 198.011 37.0042C202.507 39.4712 205.738 44.0594 207.705 50.773C208.516 53.5361 208.818 56.2917 208.609 59.04C208.403 61.7882 207.708 64.38 206.527 66.8163C206.065 67.767 205.508 68.6806 204.857 69.5561C204.649 69.5202 204.429 69.5022 204.198 69.5022C203.911 69.5022 203.607 69.5297 203.288 69.5879L203.072 69.6397L203.369 71.3189C202.688 72.0369 201.934 72.7274 201.108 73.3883C198.677 75.3339 195.75 76.808 192.326 77.8115L171.931 83.7881ZM179.214 75.4333C179.203 75.4333 179.193 75.4333 179.182 75.4333C178.833 75.4354 178.451 75.5391 178.094 75.7358L177.594 76.0054L177.575 76.4178L177.556 76.5341C177.535 76.6557 177.503 76.8112 177.524 76.9687L177.526 76.9877L178.404 76.7911L178.411 76.79L178.594 76.8693L178.442 76.7816L178.712 76.7308L178.606 76.8725L178.608 76.8714L178.619 76.8746L178.644 76.8809L178.742 76.7234L178.911 76.6906L179.052 76.8503L178.998 76.8714L178.749 76.8968L178.666 76.8841C178.75 76.9032 178.841 76.9137 178.936 76.9137C179.057 76.9137 179.186 76.8958 179.318 76.8577C179.819 76.7107 180.153 76.3269 180.107 75.9737L180.241 75.9102L180.204 75.8605L180.098 75.9155V75.9113L180.199 75.8574C180.063 75.6818 179.866 75.5613 179.634 75.4915L179.631 75.4925L179.602 75.4862V75.4841L179.591 75.482L179.574 75.4767L179.556 75.4735L179.544 75.4714L179.542 75.4703C179.437 75.446 179.33 75.4333 179.214 75.4333ZM197.884 69.498L197.855 69.5477C197.8 69.6481 197.747 69.7687 197.717 69.904C197.66 70.1536 197.669 70.4634 197.855 70.8028L198.081 71.2226L199.872 71.4236L200.831 69.333L199.679 69.2051L199.678 69.2061L199.4 69.8057L197.884 69.498ZM182.529 69.3901L184.421 70.6664L184.516 70.5892L184.55 70.5554C185.259 69.9432 185.461 69.1268 185.114 68.3168L183.74 68.8085L182.365 69.3034C182.424 69.4314 182.421 69.517 182.417 69.5382L182.42 69.5286L182.489 69.424L182.529 69.3901ZM181.971 67.5312L179.403 68.8191L179.546 69.0031C180.01 69.5043 180.638 69.7888 181.42 69.8374L182.218 67.7374L182.216 67.7342L182.139 67.7025L181.971 67.5312ZM183.998 45.4763C183.272 45.4763 182.509 45.5937 181.71 45.8274L180.515 46.1774L187.311 69.3679L188.201 69.1078C189.437 68.7451 190.456 68.1836 191.256 67.4254C192.055 66.6662 192.623 65.8287 192.963 64.9098C193.301 63.9919 193.492 62.9504 193.538 61.7861C193.583 60.623 193.521 59.5137 193.35 58.4595C193.179 57.4031 192.927 56.3087 192.595 55.174C192.252 54.0035 191.887 52.9471 191.499 52.0028C191.112 51.0564 190.605 50.0963 189.977 49.1202C189.35 48.1442 188.667 47.3649 187.926 46.7812C187.184 46.1986 186.275 45.802 185.203 45.5905C184.813 45.5144 184.411 45.4763 183.998 45.4763ZM201.414 65.5199L201.59 66.202L201.63 66.1893L201.43 65.5146H201.432L201.655 66.1819C202.227 66.0085 202.675 65.6965 202.95 65.3042L202.954 65.301L202.955 65.2979C203.146 65.0293 203.249 64.7205 203.265 64.3906L203.255 64.2764C203.115 63.5499 202.551 63.0783 201.677 62.9483L201.657 62.944L200.92 64.3874L200.994 64.398C201.089 64.4223 201.213 64.4879 201.271 64.7036L201.243 64.8347L201.432 65.5146H201.43L201.232 64.8379L201.414 65.5199ZM200.203 48.0068L198.545 49.9323L198.551 49.9376L198.621 50.0032C198.631 50.1142 198.621 50.257 198.517 50.2982L198.433 50.3299L199.079 52.2492C199.247 52.1974 199.402 52.1381 199.548 52.0747C200.961 51.4741 201.685 50.3648 201.437 49.1795L201.417 49.0727L201.364 48.9796C201.11 48.5228 200.721 48.195 200.203 48.0068Z" fill="#1E2936"/>
<path d="M157.145 85.248L156.94 84.5724L156.947 84.5713L157.145 85.248Z" fill="#1E2936"/>
<path d="M200.476 69.9951L200.002 69.9126L200.536 69.6916L200.541 69.8143L200.476 69.9951Z" fill="#1E2936"/>
<path d="M140.415 68.041H140.414L140.439 68.0262L140.415 68.041ZM140.414 68.0389V68.0378L140.432 68.0252H140.435L140.414 68.0389ZM141.058 67.5937H141.057L141.582 67.2353L141.554 67.2554L141.058 67.5937ZM141.582 67.2353L141.848 67.0513L141.864 67.0428L141.582 67.2353Z" fill="#1E2936"/>
<path d="M157.081 85.2656L156.732 83.9026L156.941 84.5709H156.945L156.749 83.8994L156.818 83.8719L157.771 83.9068L158.734 83.9428C158.532 84.536 157.951 85.0108 157.144 85.2476L157.081 85.2656ZM156.945 84.5709L156.939 84.572L157.144 85.2476L156.945 84.5709Z" fill="#FAFBF6"/>
<path d="M74.9995 80.751L74.4612 80.2244L73.98 79.7517L73.9209 79.7739L73.8933 79.7263L73.8747 79.7506L73.8817 79.7052L73.845 79.6586L75.151 78.3887L75.3741 78.5177C75.5558 78.6488 75.7016 78.8264 75.811 79.0496L75.842 79.1172L75.8561 79.187C75.8979 79.4736 75.8541 79.7528 75.7239 80.0076L75.7211 80.0118V80.015C75.5777 80.2963 75.3349 80.548 74.9995 80.751Z" fill="#FAFBF6"/>
<path d="M134.637 112.392L134.253 112.248L133.952 112.135L135.117 110.802L135.802 111.059L135.807 111.058L135.223 111.723L135.219 111.726L134.637 112.392Z" fill="#FAFBF6"/>
<path d="M178.532 18.8291L178.531 18.8259L178.528 18.827L178.362 18.7424C178.26 18.6895 178.16 18.6388 178.083 18.6155L178.076 18.6113L178.073 18.6123L179.095 17.2303L179.221 17.2694V17.2715L179.229 17.2736L179.242 17.2768L179.253 17.281V17.2831C179.428 17.3466 179.57 17.4196 179.701 17.4862L179.838 17.5538L179.835 17.556L179.841 17.557L178.532 18.8291Z" fill="#FAFBF6"/>
<path d="M125.429 89.1006L125.39 88.9663L125.295 88.997L125.152 88.3065L124.829 87.8306L124.992 87.7534L125.172 87.7196C125.359 87.6836 125.538 87.6657 125.707 87.6657C126.374 87.6657 126.881 87.9385 127.057 88.4217L125.563 88.9092L125.641 89.0202L125.429 89.1006Z" fill="#FAFBF6"/>
<path d="M73.2082 112.72L73.1326 112.64L72.4854 111.955L73.5965 111.413L74.0179 111.988L74.7523 111.563L74.7531 111.564H74.7551L74.8461 111.662L75.0559 111.879L75.0617 111.885H75.065L75.0691 111.892L75.0745 111.893L75.0753 111.896L75.0794 111.9L75.0836 111.899L75.0979 111.913L74.4743 112.349L73.2082 112.72Z" fill="#FAFBF6"/>
<path d="M253.524 83.9951L252.763 83.8703C252.622 83.4463 252.467 82.962 252.294 82.41L252.111 81.8697L251.705 81.8274L251.404 81.6635L251.422 81.4076C251.544 81.3938 251.686 81.3843 251.837 81.3843C252.043 81.3843 252.27 81.4023 252.501 81.4531L252.508 81.4562L252.511 81.4541C253.084 81.5821 253.69 81.9035 254.098 82.6374L254.137 82.7283C254.154 82.7822 254.168 82.8362 254.18 82.889C253.987 83.2718 253.767 83.6419 253.524 83.9951Z" fill="#FAFBF6"/>
<path d="M149.875 105.803L149.874 105.801L149.859 105.762L149.813 105.687L149.8 105.673L151.363 104.556C151.574 104.721 151.724 104.934 151.809 105.194L149.875 105.803Z" fill="#FAFBF6"/>
<path d="M15.2245 83.4385L15.2322 83.4055L15.2414 83.4374L15.2245 83.4385Z" fill="#FAFBF6"/>
<path d="M59.2635 100.079C59.337 99.4446 59.7737 98.935 60.4564 98.6791L60.7526 99.3209L61.0347 99.9321L59.2635 100.079Z" fill="#FAFBF6"/>
<path d="M38.8259 137.871H38.8243L37.8796 137.772L38.861 137.484L39.0276 137.505L38.9004 137.74L38.8259 137.871Z" fill="#FAFBF6"/>
<path d="M152.596 66.1279H152.594L151.724 64.9658L151.873 64.8622L151.909 64.7998L151.933 64.7025L153.914 64.49C153.905 64.6391 153.869 64.7882 153.814 64.9267L152.863 64.8643L153.814 64.9288C153.637 65.3867 153.25 65.7811 152.681 66.0835L152.678 66.0877L152.596 66.1279Z" fill="#FAFBF6"/>
<path d="M74.0756 102.973L73.1846 102.789L72.3068 102.581L72.3101 102.574L72.3142 102.567C72.3473 102.495 72.3606 102.345 72.3532 102.119C72.2201 101.727 72.0975 101.642 72.0446 101.624L72.0322 101.622L72.8996 100.204C72.9016 100.204 72.9038 100.205 72.9058 100.205L73.6319 102.684L74.2825 102.493C74.259 102.586 74.2251 102.68 74.1829 102.773V102.775L74.1801 102.784L74.0756 102.973Z" fill="#FAFBF6"/>
<path d="M149.006 111.082L148.995 110.891L149 111.081L148.977 110.826L148.852 110.398L148.712 109.924L148.716 109.923L148.862 110.392L148.736 109.918L148.941 109.858L148.979 110.365L148.963 109.85L149.636 109.653C149.827 109.688 150.002 109.753 150.155 109.847L148.997 110.809L149 110.892L149.05 111.073L149.023 110.983L149.044 111.075L149.004 110.92L149.007 110.93L149 110.903L149.001 110.91L148.998 110.899L149.006 111.082Z" fill="#FAFBF6"/>
<path d="M201.588 66.2021L201.412 65.5201L201.23 64.8381L201.429 65.5148H201.43L201.242 64.8349L201.269 64.7038C201.211 64.4881 201.087 64.4225 200.992 64.3982L200.918 64.3876L201.655 62.9442L201.675 62.9484C202.55 63.0785 203.113 63.5501 203.253 64.2766L203.263 64.3908C203.247 64.7207 203.144 65.0295 202.954 65.2981L202.952 65.3012L202.948 65.3044C202.673 65.6967 202.225 66.0086 201.653 66.1821L201.43 65.5148H201.429L201.629 66.1895L201.588 66.2021Z" fill="#FAFBF6"/>
<path d="M199.228 18.9834L199.34 18.8502L199.426 18.755L199.427 18.7529L199.711 18.8428L199.228 18.9834ZM199.711 18.8428L199.426 18.7518L199.802 18.8153L199.711 18.8428Z" fill="#FAFBF6"/>
<path d="M101.525 68.7441L100.199 68.0092L100.072 68.0558V68.0547L100.067 68.0558L100.046 68.0071L100.012 68.0579L100.027 67.9627C99.9785 67.8633 99.915 67.7406 99.8664 67.7058L99.9341 67.729L100.046 67.7438L100.05 67.728L99.7649 67.103L99.473 66.458L99.6496 66.3998L99.8548 67.0776H99.8569L99.6496 66.3998L99.8611 67.0713L99.6782 66.3924L99.7279 66.3787C99.9129 66.3279 100.098 66.2962 100.276 66.2846L100.183 67.0131L100.323 66.2824C100.361 66.2803 100.398 66.2793 100.434 66.2793C101.015 66.2793 101.369 66.4939 101.597 66.7477C101.786 66.9529 101.891 67.1844 101.97 67.3557L102.009 67.4425L102.012 67.5387C102.025 67.7967 101.983 68.0314 101.891 68.2429V68.2461C101.81 68.4322 101.686 68.5993 101.525 68.7441Z" fill="#FAFBF6"/>
<path d="M107.626 102.005L106.932 101.112L106.744 100.872L106.73 100.855L106.685 100.889L106.655 100.932L106.653 100.837L106.23 98.3493L108.567 100.165L108.623 100.354L108.626 100.381C108.729 100.977 108.414 101.541 107.78 101.918L107.626 102.005Z" fill="#FAFBF6"/>
<path d="M135.035 59.5146L134.669 58.9003L134.623 58.8231L134.387 58.8929L134.564 58.7205L134.311 58.2827L134.295 58.2923L134.242 58.3176L134.276 58.2965L134.279 58.2912L134.505 58.1569L134.511 58.1537L134.794 58.4995L134.873 58.4223L135.529 57.7868L135.548 57.7963V57.7984L135.554 57.7995L135.568 57.808C135.889 57.9845 135.926 58.2669 135.944 58.4043L135.951 58.4424L136.099 58.9458L135.414 59.3042L135.342 59.3518L135.337 59.3539L135.202 59.4322L135.201 59.4343L135.189 59.4396L135.181 59.4459L135.035 59.5146ZM134.227 58.3261L134.226 58.324L134.23 58.3229L134.242 58.3176L134.227 58.3261Z" fill="#FAFBF6"/>
<path d="M145.17 117.973C145.104 117.811 145.091 117.627 145.136 117.425L145.148 117.382L145.169 117.312L146.132 117.343L146.418 117.352L146.64 117.231L146.792 117.149L146.789 117.151L146.784 117.154L146.667 117.266L147.009 117.371L147.008 117.374H147.007L146.988 117.375L147.008 117.377V117.379L147.093 117.409L145.17 117.973Z" fill="#FAFBF6"/>
<path d="M136.447 117.969H136.444L136.389 117.935L136.199 117.799L136.086 117.72L137.307 116.411L137.51 116.508V116.509L137.512 116.512L137.518 116.515L137.743 116.672L137.852 116.751L137.148 117.361L136.447 117.969Z" fill="#FAFBF6"/>
<path d="M108.435 86.5674L107.358 85.5184L107.356 85.5205C107.372 85.4951 107.425 85.3926 107.402 85.1642C107.337 84.9685 107.231 84.683 107.127 84.6376L107.341 83.9079L107.55 83.173C108.103 83.1825 108.479 83.3412 108.74 83.56V83.5622L108.746 83.5643L108.752 83.5706H108.754C109.102 83.8709 109.244 84.2844 109.352 84.5815L109.369 84.6333L109.382 84.6989C109.498 85.6548 108.968 86.2163 108.505 86.5208L108.435 86.5674ZM107.353 85.5258L107.354 85.5226L107.356 85.5205C107.354 85.5248 107.353 85.5258 107.353 85.5258Z" fill="#FAFBF6"/>
<path d="M132.509 121.501L132.283 121.389L132.208 121.346L132.181 121.333L132.076 121.277L132.392 120.889L133.097 119.896L132.617 120.596L133.141 119.908L133.181 119.922L133.404 120.012L133.409 120.016L133.412 120.015L133.598 120.119L133.733 120.191L133.123 120.845L132.509 121.501Z" fill="#FAFBF6"/>
<path d="M160.666 45.9131L160.505 45.3601L164.527 44.181L164.679 44.1683C164.759 44.162 164.836 44.1588 164.911 44.1588C165.689 44.1588 166.23 44.4708 166.333 45.0016L166.346 45.0809L166.351 45.1285L164.734 45.4182L164.451 45.4679L164.363 45.4838L164.364 45.4922L164.366 45.4986L164.487 45.6128V45.6117L164.533 45.6255L164.525 45.6244L164.533 45.6265H164.484L160.666 45.9131Z" fill="#FAFBF6"/>
<path d="M160.568 20.7852L159.649 19.8144L159.489 19.769L159.517 19.7235L159.595 19.7531L159.55 19.7256L159.58 19.7383L159.57 19.732L159.577 19.7341L159.529 19.7129L159.526 19.715V19.714V19.7118L159.543 19.6844L159.558 19.6579H159.58L159.597 19.6389L159.641 19.6622L161.476 19.7383L161.358 20.009L161.265 20.1507L161.169 20.285L161.088 20.3717C160.94 20.5314 160.764 20.6699 160.568 20.7852Z" fill="#FAFBF6"/>
<path d="M140.58 68.0674L140.581 68.061L140.583 68.0632L140.604 68.0166L140.609 67.9986L140.483 68.0198H140.473L140.42 68.0536L140.419 68.0515L140.466 68.0198L140.461 68.0209L140.419 68.0484L140.416 68.0409L140.44 68.0261L140.415 68.0409V68.0388L140.435 68.0251H140.433L140.415 68.0378L140.047 66.7847C140.294 66.717 140.533 66.6832 140.759 66.6832C141.19 66.6832 141.573 66.8048 141.865 67.0427L141.849 67.0512L141.583 67.2352L141.058 67.5937H141.059L141.555 67.2553L141.146 67.5387L141.869 67.0501L141.061 67.5968L141.067 67.5989L141.874 67.0533L141.068 67.6L141.07 67.6021L141.88 67.0596L141.08 67.6L141.89 67.0671L141.164 67.5535L141.897 67.0734L141.08 67.6085L141.083 67.6095L141.9 67.0776L141.201 67.5366L141.906 67.0819L141.089 67.6127V67.6148L141.911 67.084L141.186 67.5566L141.916 67.0903L141.093 67.6159H141.096L141.922 67.0935L141.104 67.6159L141.925 67.0967L141.116 67.6307L140.575 67.9585L140.578 67.9606L140.643 68.0156V68.0166V68.0187L140.58 68.0674ZM141.555 67.2553L141.583 67.2352L141.865 67.0427L141.555 67.2553Z" fill="#FAFBF6"/>
<path d="M76.6166 108.358C75.8384 108.358 75.2795 108.034 75.1659 107.493L75.1638 107.479L76.1461 107.239L76.8554 107.064L76.8297 106.923L76.8409 106.948L76.8368 106.921L76.8789 107.057L76.9008 107.049L76.8739 106.913L76.9276 107.045L76.9855 107.031L76.9792 107.162L77.4171 108.214L77.2622 108.263L77.0639 107.586L77.0585 107.588L77.0598 107.592L77.2511 108.241L77.2568 108.265L77.066 108.315L76.8595 108.349C76.7764 108.355 76.6955 108.358 76.6166 108.358Z" fill="#FAFBF6"/>
<path d="M68.0665 95.7705L66.2821 95.4004L66.2799 95.4015L66.2878 95.392C66.2953 95.3645 66.3044 95.2978 66.2953 95.1889C66.2118 95.0641 66.0812 94.9129 65.9347 94.8833L65.8801 94.8791L66.2568 93.4135C66.2626 93.4135 66.2684 93.4135 66.2741 93.4135C67.1337 93.4135 67.7777 93.7688 68.1891 94.4678L68.2338 94.5365L68.249 94.6211C68.3358 95.0462 68.2738 95.4342 68.0665 95.7705ZM66.2795 95.4015H66.2787H66.2799H66.2795Z" fill="#FAFBF6"/>
<path d="M72.5466 56.1084L72.6713 55.7817C72.8654 55.7965 73.0245 55.8398 73.1608 55.8916L73.1703 55.8948L73.1753 55.8969L73.1794 55.899C73.1913 55.9033 73.2033 55.9085 73.2154 55.9128L72.5466 56.1084Z" fill="#FAFBF6"/>
<path d="M120.382 80.4531C119.906 80.3453 119.55 80.0957 119.355 79.7309L121.225 78.9727L121.29 79.0436H121.291L121.294 79.0425L120.382 80.4531Z" fill="#FAFBF6"/>
<path d="M63.1344 111.125C63.0298 110.863 62.9485 110.811 62.939 110.808L63.9832 109.434C64.6552 109.628 64.9142 110.12 65.0538 110.472L64.0935 110.799L63.1344 111.125Z" fill="#FAFBF6"/>
<path d="M100.05 47.1484L99.4436 47.1368L98.1134 47.1188L98.1155 47.103L98.1959 46.9042L98.2001 46.8999V46.8968L98.3207 46.6747L98.3947 46.5446L98.53 46.2401L98.9044 46.0561C99.2649 45.8795 99.6435 45.7896 99.984 45.7896C100.162 45.7896 100.329 45.814 100.479 45.8647L99.8063 46.6906L100.273 46.7371V46.7382L100.125 47.0141L100.05 47.1484Z" fill="#FAFBF6"/>
<path d="M118.404 97.9717L117.56 97.222L117.453 96.8582L118.139 96.6404L119.107 96.3337C119.314 96.9407 119.05 97.5519 118.404 97.9717Z" fill="#FAFBF6"/>
<path d="M108.493 119.799L108.822 119.385L108.82 119.383L108.333 118.528L108.619 118.427L108.703 118.408C108.837 118.379 108.973 118.364 109.104 118.364C109.222 118.364 109.339 118.377 109.45 118.401L109.46 118.404L109.586 118.44L109.663 118.47L108.865 119.363L109.037 119.768L108.907 119.542L108.927 119.613L108.964 119.792L108.852 119.446L108.848 119.417L108.841 119.392L108.829 119.407L108.828 119.403L108.734 119.512L108.493 119.799Z" fill="#FAFBF6"/>
<path d="M20.1085 61.4414L20.019 61.4023L19.8422 60.7213L19.6658 60.0393C19.9206 59.9705 20.1718 59.9367 20.413 59.9367C20.7798 59.9367 21.1243 60.0149 21.4253 60.1714L21.541 60.2349L21.5423 60.2359L20.1085 61.4414Z" fill="#FAFBF6"/>
<path d="M131.73 38.7646L131.7 38.6515L133.382 38.2729L133.511 38.2423L131.73 38.7646Z" fill="#FAFBF6"/>
<path d="M58.88 83.1621L58.1324 82.6175L57.8722 82.4441L58.5476 81.7748L58.4145 81.6701L58.6 81.539L58.8304 81.4713L58.8354 81.4893L59.163 81.1657L59.2187 81.19L59.2228 81.1932L59.227 81.1942C59.4059 81.2883 59.5472 81.392 59.6718 81.4871L59.7867 81.5749L60.8689 82.3384L59.4583 82.7518L58.88 83.1621Z" fill="#FAFBF6"/>
<path d="M125.092 115.193L125.111 115.054L125.16 114.814L125.179 114.735L125.183 114.719L125.188 114.686L125.189 114.681V114.679L126.493 114.497L126.656 114.472L127.176 114.4L127.156 114.589L125.092 115.193Z" fill="#FAFBF6"/>
<path d="M82.4253 136.36L78.6057 135.609L84.3216 135.189C84.876 135.147 85.3303 135.048 85.6101 134.901L85.9506 135.327L82.4253 136.36Z" fill="#FAFBF6"/>
<path d="M227.438 90.0449L226.99 88.7104L227.049 88.6903L227.122 88.4852L227.073 88.4387L227.069 88.4366L228.219 87.1C228.578 87.23 228.845 87.4595 229.025 87.7736L229.061 87.8402L229.074 87.9131C229.248 88.7369 228.745 89.5077 227.765 89.9223C227.665 89.9656 227.556 90.0079 227.438 90.0449Z" fill="#FAFBF6"/>
<path d="M132.094 53.1162L131.428 50.8438L131.679 50.7698C132.12 51.1092 132.247 51.5967 132.31 51.8515L132.322 51.9203C132.355 52.2121 132.336 52.4818 132.265 52.7229C132.225 52.8624 132.168 52.9935 132.094 53.1162Z" fill="#FAFBF6"/>
<path d="M161.876 109.646L160.377 108.949L160.341 108.957L160.377 108.948L160.374 108.945L160.372 108.943L162.206 108.356L161.369 108.632L162.209 108.365V108.367L162.233 108.436V108.44C162.353 108.868 162.229 109.293 161.876 109.646Z" fill="#FAFBF6"/>
<path d="M64.5016 78.2852L63.476 77.2045L63.7085 77.0839L63.7142 77.0818C63.9001 76.9972 64.0872 76.9338 64.2442 76.8788L64.4962 76.7921L64.642 76.7741C64.7853 76.754 64.9299 76.7381 65.0786 76.7286L65.0888 76.7276C65.1451 76.7244 65.2025 76.7223 65.2599 76.7223C65.3111 76.7223 65.3619 76.7233 65.4119 76.7276L65.4173 76.7265L65.4255 76.7286L65.4371 76.7276L65.442 76.7286L65.5102 76.735L64.8927 78.1371L64.8968 78.1445L64.8886 78.1466L64.87 78.1868L64.8535 78.1889L64.7419 78.1963L64.5115 78.2788L64.5024 78.2841L64.5016 78.2852Z" fill="#FAFBF6"/>
<path d="M67.933 47.0557C67.2444 47.0557 66.6278 46.7998 65.9957 46.3863L72.0355 44.6172C70.7786 45.8142 69.8409 46.6221 68.8128 46.9235C68.5038 47.0134 68.2126 47.0557 67.933 47.0557Z" fill="#FAFBF6"/>
<path d="M177.526 76.9883L177.524 76.9693C177.503 76.8117 177.535 76.6563 177.556 76.5347L177.575 76.4183L177.594 76.0059L178.094 75.7363C178.452 75.5396 178.833 75.436 179.182 75.4339C179.193 75.4339 179.204 75.4339 179.214 75.4339C179.33 75.4339 179.437 75.4466 179.542 75.4709L179.544 75.4719L179.557 75.474L179.575 75.4772L179.592 75.4825L179.602 75.4846V75.4867L179.631 75.4931L179.634 75.492C179.867 75.5618 180.063 75.6824 180.2 75.8579L180.098 75.9118V75.916L180.204 75.8611L180.241 75.9108L180.108 75.9742C180.153 76.3274 179.819 76.7112 179.318 76.8582C179.187 76.8963 179.058 76.9143 178.936 76.9143C178.841 76.9143 178.75 76.9037 178.666 76.8847L178.749 76.8973L178.998 76.872L179.052 76.8508L178.912 76.6912L178.742 76.7239L178.644 76.8815L178.619 76.8751L178.608 76.872L178.606 76.873L178.712 76.7313L178.442 76.7821L178.594 76.8698L178.411 76.7905L178.404 76.7916L177.526 76.9883Z" fill="#FAFBF6"/>
<path d="M226.511 19.0518L226.018 17.3705L226.054 17.3504L226.116 17.3662L228.647 16.1819L228.805 16.7212L227.443 17.9542L229.253 19.0137L226.511 19.0518ZM230.112 15.54L230.101 15.5009L230.215 15.447L230.112 15.54Z" fill="#FAFBF6"/>
<path d="M97.4079 44.1914L97.207 43.4015L97.4502 44.1798L97.4079 44.1914ZM97.4598 44.1766L97.2314 43.3962L97.3308 43.3582L98.7033 43.4068L99.9289 43.4533L97.4598 44.1766Z" fill="#FAFBF6"/>
<path d="M6.67348 85.7324L4.12317 85.2122L4.1145 85.1826L4.2323 85.0081L4.39208 84.7934L4.5288 84.6147L5.41979 84.7268L5.87629 84.7691L7.22895 84.8981L7.20135 84.9552C7.09476 85.1847 6.93985 85.3877 6.80767 85.5527L6.67348 85.7324Z" fill="#FAFBF6"/>
<path d="M65.3735 84.4482L64.82 84.241L64.3892 84.0771L66.0654 82.1557L67.0559 82.529L67.0609 82.5279L66.2169 83.487L66.2141 83.4892L65.3735 84.4482Z" fill="#FAFBF6"/>
<path d="M111.127 93.6562L108.433 93.3517L108.436 93.3454L108.473 93.2745L108.532 93.1614L108.553 93.1254L109.857 93.3612L111.163 93.5981L111.127 93.6562Z" fill="#FAFBF6"/>
<path d="M181.419 69.8379C180.638 69.7892 180.01 69.5048 179.545 69.0036L179.403 68.8196L181.97 67.5316L182.138 67.7029L182.215 67.7347L182.217 67.7378L181.419 69.8379Z" fill="#FAFBF6"/>
<path d="M52.1074 50.8906L52.0508 50.696L51.9119 50.7426L51.8674 50.5269L54.3957 49.7856C54.4151 49.8268 54.4324 49.8691 54.4482 49.9136L52.2994 50.6146L52.4109 50.7764L52.1074 50.8906Z" fill="#FAFBF6"/>
<path d="M236.663 43.5342L234.748 43.2191L234.751 43.218L234.764 43.1895C234.824 43.0509 234.821 42.8479 234.764 42.6259C234.383 41.9766 233.948 41.8783 233.675 41.8783C233.612 41.8783 233.557 41.8835 233.513 41.8888L233.489 41.8909L233.56 40.8494L233.631 39.8057C233.807 39.7866 234.009 39.7729 234.227 39.7729C234.524 39.7729 234.852 39.7983 235.19 39.8723L235.197 39.8744H235.2C235.342 39.9051 235.484 39.9453 235.626 39.9939L236.663 43.5342Z" fill="#FAFBF6"/>
<path d="M250.73 86.6719C250.297 85.8312 249.942 84.722 249.474 83.2617L248.953 81.6364L249.022 81.6385L248.576 80.1179L251.404 81.6628L251.706 81.8267L252.112 81.869L252.295 82.4094C252.468 82.9613 252.622 83.4457 252.764 83.8697C252.859 84.1541 252.949 84.4121 253.035 84.6458C252.39 85.4315 251.615 86.1199 250.73 86.6719Z" fill="#FAFBF6"/>
<path d="M87.3264 74.9521L87.3243 74.95L87.3031 74.8898L87.2355 74.7861L87.2164 74.7629L87.4702 74.582C87.5157 74.6751 87.5601 74.7692 87.6045 74.8644L87.3264 74.9521Z" fill="#FAFBF6"/>
<path d="M184.42 70.667L182.528 69.3907L182.488 69.4245L182.419 69.5292L182.416 69.5387C182.42 69.5176 182.423 69.4319 182.364 69.304L183.739 68.8091L185.114 68.3174C185.46 69.1274 185.258 69.9437 184.549 70.556L184.515 70.5898L184.42 70.667Z" fill="#FAFBF6"/>
<path d="M136.069 114.267L136.07 114.261L136.126 114.233L135.665 113.747L137.808 113.119L137.837 113.233L136.113 113.623L136.418 114.137L136.413 114.138C136.305 114.185 136.187 114.227 136.069 114.267Z" fill="#FAFBF6"/>
<path d="M98.698 99.6465L96.7312 98.4378L96.8655 98.3279L97.0865 98.165L97.1595 98.1122L97.3487 97.9789L97.3657 97.9641L99.5894 98.937V98.9401L99.4668 99.0607L99.4657 99.0617L99.4604 99.0638L99.4562 99.0681C99.2807 99.233 99.085 99.3694 98.9116 99.4942L98.7044 99.6444L98.7033 99.6423L98.698 99.6465Z" fill="#FAFBF6"/>
<path d="M86.068 82.5596L86.0331 82.1895L85.8523 81.573L85.5668 80.6001L85.8692 81.5656L85.607 80.5885L85.774 80.5462L85.9601 80.5092L86.0331 81.5286L86.0024 80.5008C86.1716 80.4733 86.3398 80.4595 86.5026 80.4595C86.9626 80.4595 87.3877 80.5684 87.7303 80.781L86.0627 82.1662L86.0659 82.2857L86.1367 82.5458L86.0997 82.4168L86.1325 82.5479L86.0743 82.3259L86.0765 82.3396L86.0659 82.3047L86.0691 82.3111L86.0648 82.2963L86.0765 82.5596L86.0616 82.2846L86.068 82.5596Z" fill="#FAFBF6"/>
<path d="M203.37 71.3193L203.073 69.6401L203.29 69.5883C203.608 69.5302 203.912 69.5027 204.199 69.5027C204.431 69.5027 204.651 69.5207 204.858 69.5566C204.407 70.1625 203.911 70.7494 203.37 71.3193Z" fill="#FAFBF6"/>
<path d="M192.874 98.876L192.586 98.7184L192.434 98.7713L192.353 98.5958L190.805 97.7498C190.894 97.6684 190.996 97.5849 191.104 97.5045L191.109 97.4992L193.138 96.9049C193.92 96.9187 194.538 97.219 194.836 97.7414L194.838 97.7435L194.84 97.7488L194.917 97.9031L192.803 98.6423L192.987 98.7893L192.911 98.7385L192.979 98.7956L192.783 98.6486L192.752 98.6592L192.955 98.8136L192.895 98.8601L192.874 98.876Z" fill="#FAFBF6"/>
<path d="M199.87 71.4238L198.079 71.2229L197.854 70.8031C197.668 70.4637 197.658 70.1539 197.715 69.9043C197.746 69.769 197.799 69.6484 197.854 69.5479L197.882 69.4983L199.399 69.806L199.677 69.2064L199.678 69.2053L200.829 69.3333L199.87 71.4238ZM200.537 69.6918L200.003 69.9128L200.476 69.9952L200.541 69.8144L200.537 69.6918Z" fill="#FAFBF6"/>
<path d="M26.46 69.4824L25.4571 68.1966L25.1898 67.8498L25.1658 67.8265L25.1006 67.8751L25.0577 67.9354L25.0564 67.8022L24.935 67.0842L27.2642 66.4021L27.8157 66.8304L27.8962 67.1032L27.8995 67.1413C28.0478 67.9999 27.5926 68.8141 26.6789 69.3587L26.46 69.4824ZM24.6681 65.5086L24.4492 64.2164L25.7181 65.2009L24.6681 65.5086Z" fill="#FAFBF6"/>
<path d="M83.0178 93.4961L82.6848 93.495C82.1433 93.4919 81.6819 93.4009 81.3246 93.2328L81.3185 93.2339V93.2317C80.6637 92.9261 80.3478 92.3784 80.5027 91.6974L80.5171 91.635L80.5502 91.5335L81.9381 91.5811L82.3502 91.5938C82.4523 91.5346 82.561 91.4775 82.667 91.4193L82.8757 91.3062L82.7097 91.468L83.202 91.6192L83.2 91.6244L83.1979 91.6255H83.169L83.1991 91.6297L83.2 91.6329L84.8691 92.2029C84.2954 92.6628 83.6783 93.0943 83.0178 93.4961ZM82.8757 91.3062L82.8889 91.2988L82.886 91.303L82.8757 91.3062Z" fill="#FAFBF6"/>
<path d="M52.2999 139.649L51.0261 138.551L53.402 137.855C53.4032 138.027 53.3793 138.198 53.3326 138.361V138.364L53.3272 138.377V138.386L53.3265 138.389C53.2355 138.683 53.0682 138.959 52.8286 139.212V139.213L52.8163 139.226L52.8067 139.234L52.8019 139.244L52.7853 139.258L52.7833 139.261C52.6771 139.368 52.5601 139.468 52.4268 139.563L52.2999 139.649ZM50.7163 136.989L50.9885 135.934C50.998 135.934 51.0071 135.934 51.0162 135.934C51.3037 135.934 51.5792 135.973 51.832 136.052L51.2656 136.827L50.7163 136.989ZM51.2739 136.825L51.8695 136.064C52.1364 136.147 52.3789 136.271 52.5998 136.437L51.2739 136.825Z" fill="#FAFBF6"/>
<path d="M67.9827 92.4824L67.976 92.4803L67.8976 92.4338L67.6221 92.2392L67.4618 92.124L69.2185 90.2364C69.3301 90.2787 69.423 90.3263 69.5118 90.3781V90.3803L69.5181 90.3824L69.5222 90.3866C69.6469 90.4596 69.7472 90.5389 69.8485 90.6129L70.0067 90.7281L68.9942 91.6048L67.9827 92.4824Z" fill="#FAFBF6"/>
<path d="M62.3071 97.5732C62.2017 97.5267 62.0903 97.4717 61.98 97.4104L61.8734 97.3491L61.8333 97.329L61.6813 97.2497L62.1378 96.6892L63.1539 95.2585L62.462 96.2694L63.215 95.2797L63.2715 95.2987C63.3914 95.3389 63.5001 95.3812 63.5959 95.4288L63.6 95.433L63.6054 95.4319C63.7033 95.4827 63.7941 95.5345 63.8767 95.58L64.0688 95.6836L63.189 96.6279L62.3071 97.5732Z" fill="#FAFBF6"/>
<path d="M245.628 88.5332L245.338 88.1895L245.577 88.0648L245.732 87.9854L246.086 88.3989L245.628 88.5332Z" fill="#FAFBF6"/>
<path d="M241.382 78.668L241.089 78.2207L243.632 77.4752L243.082 75.5951L245.539 74.4287L244.025 76.7075L244.406 76.9793L243.1 77.9457L242.075 78.521L241.92 78.4163L241.382 78.668Z" fill="#FAFBF6"/>
<path d="M41.9839 63.6709L40.6464 62.4792L43.0901 61.7633C43.1483 62.4813 42.7551 63.1707 41.9839 63.6709Z" fill="#FAFBF6"/>
<path d="M54.3187 89.457L53.7347 87.4648L53.8722 87.4458L54.6219 87.3379C54.6219 87.4405 54.6128 87.5473 54.5888 87.6583L54.5691 87.744L54.5381 87.8889L54.4989 88.0697L54.3187 89.457Z" fill="#FAFBF6"/>
<path d="M199.078 52.249L198.432 50.3298L198.517 50.2981C198.62 50.2568 198.631 50.1141 198.62 50.003L198.551 49.9375L198.544 49.9322L200.202 48.0066C200.72 48.1948 201.11 48.5226 201.363 48.9794L201.416 49.0725L201.436 49.1793C201.685 50.3647 200.96 51.4739 199.548 52.0745C199.402 52.138 199.246 52.1972 199.078 52.249Z" fill="#FAFBF6"/>
<path d="M104.616 80.4912L102.458 79.4856L102.407 79.4983L102.457 79.4835L102.452 79.4814L102.451 79.4782L105.092 78.6323L103.885 79.0298L105.097 78.646V78.6481L105.132 78.7465L105.134 78.7528L105.136 78.7549C105.304 79.3714 105.124 79.9847 104.616 80.4912Z" fill="#FAFBF6"/>
<path d="M134.978 119.135L133.166 118.751L132.882 118.834L132.357 119.043L132.699 118.902L132.863 118.84L132.849 118.844L133.116 118.738H133.109L133.112 118.737L133.703 118.497L135.051 117.951L133.706 118.506L135.063 117.969L135.141 118.164L135.149 118.193L135.15 118.195L135.153 118.201L135.15 118.213V118.214L135.162 118.256V118.258C135.22 118.545 135.159 118.845 134.978 119.135Z" fill="#FAFBF6"/>
<path d="M27.2745 140.298L25.7499 140.243C25.8189 140.021 25.942 139.818 26.0432 139.654L26.1414 139.483L26.1423 139.479L27.0638 139.579L27.2745 140.298ZM28.7995 139.864L28.7694 139.761L28.845 139.769L28.847 139.771C28.8322 139.802 28.8164 139.833 28.7995 139.864Z" fill="#FAFBF6"/>
<path d="M127.162 33.4395L127.158 33.412C127.13 33.1846 127.176 32.9615 127.207 32.7849L127.235 32.6157L127.263 32.0225L127.981 31.6344C128.498 31.3489 129.047 31.203 129.549 31.1977C129.555 31.1977 129.56 31.1977 129.565 31.1977C129.743 31.1977 129.907 31.2146 130.068 31.2516V31.2538L130.088 31.2569L130.115 31.2622L130.139 31.2696L130.155 31.2717V31.2749L130.195 31.2834H130.197C130.535 31.3838 130.815 31.5583 131.016 31.81L130.868 31.8893L130.87 31.8956L131.021 31.8142L131.072 31.885L130.882 31.977C130.948 32.4867 130.466 33.0387 129.745 33.2502C129.554 33.3062 129.364 33.3316 129.184 33.3316C129.051 33.3316 128.923 33.3179 128.805 33.2904L128.925 33.3073C128.945 33.3094 128.966 33.3094 128.987 33.3094C129.089 33.3094 129.194 33.2967 129.285 33.2703L129.362 33.2407L129.161 33.0101L128.919 33.0567L128.776 33.2851L128.736 33.2755L128.721 33.2724H128.719L128.874 33.0683L128.483 33.1434C128.506 33.1709 128.572 33.229 128.705 33.2692C128.609 33.2406 128.517 33.1994 128.437 33.154L128.427 33.1571L127.162 33.4395Z" fill="#FAFBF6"/>
</g>
</g>
</svg>
