<svg width="377" height="102" viewBox="0 0 377 102" fill="none" xmlns="http://www.w3.org/2000/svg">
<circle cx="162.176" cy="10.8537" r="10.8537" fill="#95C7EC"/>
<circle cx="187.501" cy="10.8537" r="10.8537" fill="#6500E0"/>
<path d="M0 100.597V26.0824H21.3299L22.3122 50.3592L18.1024 45.7284C19.225 41.7057 21.0493 38.1039 23.5752 34.9231C26.1946 31.7423 29.2351 29.2164 32.6965 27.3454C36.1579 25.4743 39.8532 24.5388 43.7824 24.5388C45.4664 24.5388 47.01 24.6791 48.4133 24.9598C49.9101 25.2405 51.2666 25.5679 52.4828 25.9421L52.4045 51.5179C52.4045 51.5179 48.4133 47.9737 41.9204 48.0551C35.4275 48.1366 32.7901 48.9092 31.0126 49.6576C29.2351 50.3125 27.7382 51.2948 26.5221 52.6045C25.3059 53.9142 24.3236 55.4578 23.5752 57.2353C22.9203 59.0128 22.5929 61.0242 22.5929 63.2694V100.597H0Z" fill="#6500E0"/>
<path d="M96.2115 102C87.9789 102 80.8222 100.363 74.7413 97.0886C68.6604 93.7207 63.936 89.1834 60.5681 83.4767C57.2002 77.6765 55.5163 71.0811 55.5163 63.6904C55.5163 57.9837 56.4518 52.7448 58.3229 47.9737C60.1939 43.2025 62.8134 39.0862 66.1812 35.6248C69.5491 32.0698 73.5251 29.3568 78.1092 27.4857C82.7868 25.5211 87.8854 24.5388 93.4049 24.5388C98.6439 24.5388 103.415 25.4743 107.718 27.3454C112.115 29.2164 115.904 31.8359 119.085 35.2038C122.266 38.5717 124.698 42.5476 126.382 47.1317C128.066 51.7157 128.814 56.7208 128.627 62.1468L128.487 68.1809H69.1281L65.9006 55.5514H110.244L107.859 58.2176V55.4111C107.672 53.0723 106.923 51.0141 105.614 49.2366C104.397 47.3656 102.76 45.9155 100.702 44.8864C98.6439 43.8574 96.3051 43.3428 93.6856 43.3428C90.0371 43.3428 86.9031 44.0912 84.2836 45.5881C81.7577 46.9914 79.8399 49.0963 78.5301 51.9028C77.2204 54.6159 76.5656 57.9837 76.5656 62.0065C76.5656 66.1228 77.4075 69.7245 79.0915 72.8118C80.869 75.8054 83.3949 78.1442 86.6692 79.8282C90.0371 81.5121 94.013 82.3541 98.5971 82.3541C101.778 82.3541 104.584 81.8863 107.017 80.9508C109.543 80.0153 112.256 78.4249 115.156 76.1797L125.68 91.0545C122.78 93.5804 119.693 95.6385 116.419 97.2289C113.144 98.8193 109.777 99.9887 106.315 100.737C102.947 101.579 99.5794 102 96.2115 102Z" fill="#6500E0"/>
<path d="M164.435 100.597L133.282 26.0824H158.12L176.644 81.7928L171.171 82.3541L190.256 26.0824H214.813L182.117 100.597H164.435Z" fill="#6500E0"/>
<path d="M257.167 102C249.963 102 243.508 100.316 237.802 96.9482C232.095 93.5804 227.558 88.9963 224.19 83.1961C220.916 77.3023 219.278 70.6601 219.278 63.2694C219.278 55.8788 220.916 49.2834 224.19 43.4831C227.558 37.5894 232.095 32.9585 237.802 29.5906C243.508 26.2228 249.963 24.5388 257.167 24.5388C263.809 24.5388 269.89 25.7082 275.41 28.047C281.023 30.3858 285.467 33.6602 288.741 37.87L276.532 52.4642C275.223 50.9673 273.679 49.564 271.901 48.2543C270.124 46.9446 268.159 45.9155 266.008 45.1671C263.856 44.4187 261.611 44.0445 259.272 44.0445C255.717 44.0445 252.583 44.8864 249.87 46.5704C247.157 48.1608 245.052 50.406 243.555 53.3061C242.058 56.2062 241.31 59.5274 241.31 63.2694C241.31 66.8244 242.058 70.052 243.555 72.9521C245.146 75.8522 247.297 78.1442 250.01 79.8282C252.723 81.5121 255.811 82.3541 259.272 82.3541C261.704 82.3541 263.95 82.0734 266.008 81.5121C268.066 80.8573 269.937 79.9217 271.621 78.7056C273.398 77.4894 275.035 75.9925 276.532 74.2151L288.601 88.9495C285.42 92.9723 280.976 96.1531 275.269 98.4919C269.656 100.831 263.622 102 257.167 102Z" fill="#6500E0"/>
<path d="M336.021 102C328.256 102 321.333 100.316 315.252 96.9482C309.265 93.5804 304.493 88.9963 300.939 83.1961C297.477 77.3958 295.746 70.7536 295.746 63.2694C295.746 55.7853 297.477 49.1431 300.939 43.3428C304.493 37.5426 309.265 32.9585 315.252 29.5906C321.333 26.2228 328.256 24.5388 336.021 24.5388C343.785 24.5388 350.662 26.2228 356.649 29.5906C362.73 32.9585 367.501 37.5426 370.962 43.3428C374.424 49.1431 376.154 55.7853 376.154 63.2694C376.154 70.7536 374.424 77.3958 370.962 83.1961C367.501 88.9963 362.73 93.5804 356.649 96.9482C350.662 100.316 343.785 102 336.021 102ZM336.021 82.6348C339.388 82.6348 342.382 81.7928 345.002 80.1088C347.621 78.4249 349.679 76.1329 351.176 73.2328C352.673 70.3326 353.375 67.0115 353.281 63.2694C353.375 59.5274 352.673 56.2062 351.176 53.3061C349.679 50.3125 347.621 47.9737 345.002 46.2897C342.382 44.6058 339.388 43.7638 336.021 43.7638C332.653 43.7638 329.612 44.6058 326.899 46.2897C324.28 47.9737 322.222 50.3125 320.725 53.3061C319.228 56.2062 318.526 59.5274 318.62 63.2694C318.526 67.0115 319.228 70.3326 320.725 73.2328C322.222 76.1329 324.28 78.4249 326.899 80.1088C329.612 81.7928 332.653 82.6348 336.021 82.6348Z" fill="#6500E0"/>
<mask id="mask0_593_5123" style="mask-type:alpha" maskUnits="userSpaceOnUse" x="0" y="24" width="377" height="78">
<path d="M0 100.597V26.0824H21.3299L22.3122 50.3592L18.1024 45.7284C19.225 41.7057 21.0493 38.1039 23.5752 34.9231C26.1946 31.7423 29.2351 29.2164 32.6965 27.3454C36.1579 25.4743 39.8532 24.5388 43.7824 24.5388C45.4664 24.5388 47.01 24.6791 48.4133 24.9598C49.9101 25.2405 51.2666 25.5679 52.4828 25.9421L52.4045 51.5179C52.4045 51.5179 48.4133 47.9737 41.9204 48.0551C35.4275 48.1366 32.7901 48.9092 31.0126 49.6576C29.2351 50.3125 27.7382 51.2948 26.5221 52.6045C25.3059 53.9142 24.3236 55.4578 23.5752 57.2353C22.9203 59.0128 22.5929 61.0242 22.5929 63.2694V100.597H0Z" fill="#6500E0"/>
<path d="M96.2115 102C87.9789 102 80.8222 100.363 74.7413 97.0886C68.6604 93.7207 63.936 89.1834 60.5681 83.4767C57.2002 77.6765 55.5163 71.0811 55.5163 63.6904C55.5163 57.9837 56.4518 52.7448 58.3229 47.9737C60.1939 43.2025 62.8134 39.0862 66.1812 35.6248C69.5491 32.0698 73.5251 29.3568 78.1092 27.4857C82.7868 25.5211 87.8854 24.5388 93.4049 24.5388C98.6439 24.5388 103.415 25.4743 107.718 27.3454C112.115 29.2164 115.904 31.8359 119.085 35.2038C122.266 38.5717 124.698 42.5476 126.382 47.1317C128.066 51.7157 128.814 56.7208 128.627 62.1468L128.487 68.1809H69.1281L65.9006 55.5514H110.244L107.859 58.2176V55.4111C107.672 53.0723 106.923 51.0141 105.614 49.2366C104.397 47.3656 102.76 45.9155 100.702 44.8864C98.6439 43.8574 96.3051 43.3428 93.6856 43.3428C90.0371 43.3428 86.9031 44.0912 84.2836 45.5881C81.7577 46.9914 79.8399 49.0963 78.5301 51.9028C77.2204 54.6159 76.5656 57.9837 76.5656 62.0065C76.5656 66.1228 77.4075 69.7245 79.0915 72.8118C80.869 75.8054 83.3949 78.1442 86.6692 79.8282C90.0371 81.5121 94.013 82.3541 98.5971 82.3541C101.778 82.3541 104.584 81.8863 107.017 80.9508C109.543 80.0153 112.256 78.4249 115.156 76.1797L125.68 91.0545C122.78 93.5804 119.693 95.6385 116.419 97.2289C113.144 98.8193 109.777 99.9887 106.315 100.737C102.947 101.579 99.5794 102 96.2115 102Z" fill="#6500E0"/>
<path d="M164.435 100.597L133.282 26.0824H158.12L176.644 81.7928L171.171 82.3541L190.256 26.0824H214.813L182.117 100.597H164.435Z" fill="#6500E0"/>
<path d="M257.167 102C249.963 102 243.508 100.316 237.802 96.9482C232.095 93.5804 227.558 88.9963 224.19 83.1961C220.916 77.3023 219.278 70.6601 219.278 63.2694C219.278 55.8788 220.916 49.2834 224.19 43.4831C227.558 37.5894 232.095 32.9585 237.802 29.5906C243.508 26.2228 249.963 24.5388 257.167 24.5388C263.809 24.5388 269.89 25.7082 275.41 28.047C281.023 30.3858 285.467 33.6602 288.741 37.87L276.532 52.4642C275.223 50.9673 273.679 49.564 271.901 48.2543C270.124 46.9446 268.159 45.9155 266.008 45.1671C263.856 44.4187 261.611 44.0445 259.272 44.0445C255.717 44.0445 252.583 44.8864 249.87 46.5704C247.157 48.1608 245.052 50.406 243.555 53.3061C242.058 56.2062 241.31 59.5274 241.31 63.2694C241.31 66.8244 242.058 70.052 243.555 72.9521C245.146 75.8522 247.297 78.1442 250.01 79.8282C252.723 81.5121 255.811 82.3541 259.272 82.3541C261.704 82.3541 263.95 82.0734 266.008 81.5121C268.066 80.8573 269.937 79.9217 271.621 78.7056C273.398 77.4894 275.035 75.9925 276.532 74.2151L288.601 88.9495C285.42 92.9723 280.976 96.1531 275.269 98.4919C269.656 100.831 263.622 102 257.167 102Z" fill="#6500E0"/>
<path d="M336.021 102C328.256 102 321.333 100.316 315.252 96.9482C309.265 93.5804 304.493 88.9963 300.939 83.1961C297.477 77.3958 295.746 70.7536 295.746 63.2694C295.746 55.7853 297.477 49.1431 300.939 43.3428C304.493 37.5426 309.265 32.9585 315.252 29.5906C321.333 26.2228 328.256 24.5388 336.021 24.5388C343.785 24.5388 350.662 26.2228 356.649 29.5906C362.73 32.9585 367.501 37.5426 370.962 43.3428C374.424 49.1431 376.154 55.7853 376.154 63.2694C376.154 70.7536 374.424 77.3958 370.962 83.1961C367.501 88.9963 362.73 93.5804 356.649 96.9482C350.662 100.316 343.785 102 336.021 102ZM336.021 82.6348C339.388 82.6348 342.382 81.7928 345.002 80.1088C347.621 78.4249 349.679 76.1329 351.176 73.2328C352.673 70.3326 353.375 67.0115 353.281 63.2694C353.375 59.5274 352.673 56.2062 351.176 53.3061C349.679 50.3125 347.621 47.9737 345.002 46.2897C342.382 44.6058 339.388 43.7638 336.021 43.7638C332.653 43.7638 329.612 44.6058 326.899 46.2897C324.28 47.9737 322.222 50.3125 320.725 53.3061C319.228 56.2062 318.526 59.5274 318.62 63.2694C318.526 67.0115 319.228 70.3326 320.725 73.2328C322.222 76.1329 324.28 78.4249 326.899 80.1088C329.612 81.7928 332.653 82.6348 336.021 82.6348Z" fill="#6500E0"/>
</mask>
<g mask="url(#mask0_593_5123)">
<path d="M20.4489 107.357L-2.04492 103.267L23.5163 57.257L25.5612 54.1897L29.651 51.1223L46.0101 54.1897L20.4489 107.357Z" fill="#95C7EC"/>
</g>
</svg>
