<svg width="255" height="152" viewBox="0 0 255 152" fill="none" xmlns="http://www.w3.org/2000/svg">
<g style="mix-blend-mode:exclusion">
<mask id="mask0_1040_18271" style="mask-type:luminance" maskUnits="userSpaceOnUse" x="0" y="0" width="255" height="152">
<path d="M0 151.104H254.377V-4.57764e-05H0V151.104Z" fill="white"/>
</mask>
<g mask="url(#mask0_1040_18271)">
<path d="M29.8042 151.104H29.6836C25.5885 151.077 21.8236 148.39 20.6132 144.258L3.29326 85.158L5.84357 85.6782L5.97776 85.4984C6.10994 85.3335 6.26485 85.1305 6.37144 84.901L6.39904 84.8439L5.04637 84.7149L4.58988 84.6726L3.69889 84.5605L3.56216 84.7392L3.40239 84.9539L3.28459 85.1283L0.385752 75.2372C0.131757 74.369 0.00655607 73.4924 0 72.6295V72.4815C0.0318286 68.3924 2.71622 64.6343 6.844 63.4246L51.04 50.4732L51.0845 50.6889L51.2234 50.6424L51.28 50.837L51.5835 50.7227L51.472 50.561L53.6208 49.8599C53.605 49.8155 53.5877 49.7732 53.5683 49.7319L65.167 46.3323C65.799 46.7458 66.4157 47.0017 67.1043 47.0017C67.3839 47.0017 67.6751 46.9594 67.9841 46.8695C69.0121 46.5681 69.9498 45.7602 71.2067 44.5632L221.95 0.38591C222.82 0.131073 223.698 0.00630188 224.563 -4.57764e-05H224.699C228.791 0.0295715 232.553 2.71437 233.763 6.8447L253.99 75.8653C254.698 78.2804 254.404 80.7527 253.352 82.8348C253.34 82.7819 253.326 82.728 253.309 82.6741L253.27 82.5831C252.862 81.8493 252.256 81.5278 251.683 81.3999L251.679 81.402L251.673 81.3988C251.442 81.348 251.215 81.3301 251.009 81.3301C250.858 81.3301 250.716 81.3396 250.593 81.3533L250.575 81.6092L247.747 80.0643L248.193 81.5849L248.124 81.5828L248.646 83.2081C249.113 84.6684 249.468 85.7776 249.901 86.6183C249.181 87.0677 248.388 87.4272 247.532 87.6778L245.258 88.3451L244.903 87.9316L244.748 88.0109L244.509 88.1357L244.8 88.4793L146.266 117.355L146.181 117.325V117.323L146.161 117.321L146.18 117.32H146.181L146.182 117.317L145.84 117.212L145.957 117.1L145.962 117.097L145.965 117.094L145.813 117.177L145.591 117.297L145.305 117.289L144.342 117.257L144.321 117.327L144.309 117.37C144.264 117.572 144.277 117.756 144.343 117.918L85.1226 135.274L84.7821 134.848C84.5023 134.995 84.0479 135.094 83.4936 135.135L77.7777 135.555L81.5972 136.307L32.4259 150.716C31.5523 150.972 30.6716 151.098 29.8042 151.104ZM26.4473 140.244L27.0698 142.367C27.4258 143.583 28.5411 144.373 29.7493 144.373C30.0091 144.373 30.2726 144.336 30.5341 144.26L50.1982 138.497L51.472 139.596L51.5989 139.509C51.7322 139.414 51.8492 139.314 51.9553 139.207L51.9574 139.204L51.974 139.191L51.9788 139.18L51.9883 139.173L52.0007 139.159V139.158C52.2403 138.905 52.4076 138.629 52.4985 138.335L52.4993 138.332V138.323L52.5047 138.31V138.308C52.5514 138.144 52.5753 137.973 52.574 137.801L134.836 113.694L135.297 114.179L135.241 114.208L135.239 114.213C135.358 114.174 135.475 114.132 135.583 114.084L135.588 114.083L135.284 113.569L137.008 113.18L136.979 113.066L147.884 109.87L148.024 110.344L148.149 110.772L148.172 111.027L148.167 110.837L148.178 111.028L148.17 110.845L148.173 110.856L148.172 110.849L148.179 110.876L148.176 110.866L148.216 111.021L148.195 110.929L148.222 111.018L148.172 110.838L148.169 110.755L149.327 109.793C149.174 109.699 148.999 109.634 148.807 109.599L190.28 97.4453L190.274 97.4506C190.167 97.5309 190.064 97.6145 189.975 97.6959L191.523 98.5419L191.605 98.7174L191.756 98.6645L192.045 98.8221L192.066 98.8062L192.125 98.7597L191.922 98.6053L191.954 98.5947L192.149 98.7417L192.082 98.6846L192.158 98.7354L191.974 98.5884L194.088 97.8492L194.01 97.6949L194.008 97.6896L194.006 97.6874C193.708 97.1651 193.09 96.8648 192.308 96.851L245.64 81.2222C247.118 80.7887 247.966 79.2353 247.533 77.7581L229.283 15.486L229.386 15.393L229.271 15.4469L227.305 8.73643C226.948 7.52039 225.833 6.72943 224.626 6.72943C224.367 6.72943 224.104 6.76645 223.844 6.84258L99.0986 43.4L97.8731 43.3535L96.5005 43.3049L96.4011 43.3429L96.6295 44.1233L96.62 44.1265L96.3768 43.3482L96.5777 44.1381L24.8884 65.1472L23.6195 64.1627L23.8384 65.4549L8.73575 69.8813C7.25905 70.3138 6.40855 71.8682 6.84231 73.3454L26.2366 139.525L25.3151 139.425L25.3142 139.428L25.216 139.6C25.1148 139.764 24.9917 139.967 24.9227 140.189L26.4473 140.244ZM132.267 119.843L131.562 120.836L131.246 121.224L131.351 121.28L131.378 121.292L131.453 121.336L131.679 121.448L132.292 120.792L132.903 120.138L132.768 120.066L132.582 119.962L132.579 119.963L132.574 119.959L132.351 119.869L132.31 119.855L131.787 120.543L132.267 119.843ZM132.339 118.698L134.151 119.081C134.332 118.792 134.394 118.491 134.335 118.205V118.203L134.324 118.16V118.159L134.326 118.148L134.324 118.141L134.323 118.139L134.314 118.111L134.236 117.916L132.879 118.452L134.224 117.898L132.876 118.444L132.285 118.684L132.282 118.685H132.289L132.023 118.791L132.037 118.786L131.873 118.849L131.53 118.989L132.056 118.781L132.339 118.698ZM136.479 116.357L135.259 117.667L135.371 117.745L135.561 117.881L135.616 117.915H135.619L136.32 117.307L137.024 116.697L136.916 116.619L136.69 116.461L136.684 116.458L136.682 116.456V116.455L136.479 116.357ZM159.548 108.895L161.046 109.592C161.399 109.24 161.523 108.815 161.403 108.387V108.382L161.379 108.314V108.311L160.54 108.579L161.376 108.303L159.542 108.89L159.545 108.892L159.548 108.894L159.512 108.904L159.548 108.895ZM227.391 87.0465L226.242 88.3831L226.245 88.3852L226.295 88.4318L226.222 88.6369L226.163 88.657L226.611 89.9915C226.728 89.9545 226.837 89.9122 226.938 89.8688C227.918 89.4543 228.42 88.6834 228.247 87.8597L228.233 87.7867L228.197 87.7201C228.017 87.406 227.751 87.1766 227.391 87.0465ZM19.0127 60.6668L19.1895 61.3478L19.2791 61.3869L20.7128 60.1815L20.7116 60.1804L20.5959 60.117C20.2948 59.9605 19.9503 59.8822 19.5835 59.8822C19.3423 59.8822 19.0912 59.9161 18.8363 59.9848L19.0127 60.6668ZM128.738 31.1444C128.733 31.1444 128.728 31.1444 128.723 31.1444C128.22 31.1497 127.671 31.2956 127.154 31.5811L126.436 31.9692L126.408 32.5624L126.38 32.7316C126.35 32.9082 126.303 33.1313 126.332 33.3587L126.335 33.3862L127.601 33.1039L127.61 33.1007C127.69 33.1462 127.782 33.1874 127.879 33.2159C127.745 33.1758 127.679 33.1176 127.657 33.0901L128.047 33.015L127.892 33.2191H127.895L127.909 33.2223L127.95 33.2318L128.092 33.0034L128.334 32.9569L128.535 33.1874L128.458 33.217C128.367 33.2434 128.263 33.2561 128.16 33.2561C128.139 33.2561 128.119 33.2561 128.099 33.254L127.978 33.2371C128.097 33.2646 128.224 33.2783 128.358 33.2783C128.537 33.2783 128.727 33.253 128.918 33.1969C129.639 32.9854 130.122 32.4334 130.055 31.9238L130.245 31.8318L130.194 31.7609L130.043 31.8423L130.041 31.836L130.189 31.7567C129.988 31.505 129.708 31.3306 129.371 31.2301H129.369L129.328 31.2216V31.2185L129.313 31.2163L129.288 31.2089L129.261 31.2037L129.242 31.2005V31.1984C129.08 31.1614 128.916 31.1444 128.738 31.1444ZM158.686 19.6703L158.658 19.7157L158.818 19.7612L159.737 20.7319C159.933 20.6167 160.109 20.4781 160.257 20.3185L160.338 20.2318L160.434 20.0975L160.527 19.9558L160.645 19.6851L158.81 19.6089L158.766 19.5857L158.749 19.6047H158.727L158.712 19.6311L158.695 19.6586V19.6608V19.6618L158.698 19.6597L158.746 19.6808L158.739 19.6787L158.749 19.6851L158.719 19.6724L158.764 19.6999L158.686 19.6703ZM177.705 18.7715L177.706 18.7746L179.014 17.5025L179.009 17.5015L179.012 17.4994L178.874 17.4317C178.743 17.3651 178.602 17.2921 178.426 17.2287V17.2265L178.415 17.2223L178.403 17.2192L178.394 17.217V17.2149L178.268 17.1758L177.246 18.5578L177.249 18.5568L177.256 18.561C177.334 18.5843 177.433 18.635 177.536 18.6879L177.702 18.7725L177.705 18.7715ZM29.7493 142.786C29.2276 142.786 28.7456 142.445 28.5907 141.92L27.9723 139.81C27.9892 139.778 28.005 139.748 28.0198 139.717L28.0178 139.715L27.9422 139.707L8.36438 72.8981C8.17816 72.2615 8.54488 71.5901 9.1823 71.404L24.1053 67.0304L24.2267 67.7484L24.2279 67.8817L24.2709 67.8214L24.3361 67.7727L24.3601 67.796L24.6273 68.1428L25.6303 69.4287L25.8492 69.305C26.7629 68.7604 27.218 67.9462 27.0698 67.0875L27.0665 67.0495L26.9859 66.7767L26.4345 66.3484L39.8184 62.4253L41.1559 63.6171C41.9271 63.1169 42.3204 62.4274 42.2621 61.7094L224.29 8.36526C224.402 8.33249 224.516 8.31664 224.627 8.31664C225.149 8.31664 225.629 8.6582 225.783 9.18269L227.817 16.1279L225.287 17.3122L225.225 17.2963L225.189 17.3164L223.506 11.5725L198.971 18.7619L198.595 18.6985L198.88 18.7894L198.596 18.6996L198.595 18.7016L198.509 18.7968L198.397 18.9301L132.684 38.188L132.555 38.2186L130.872 38.5972L130.903 38.7104L72.3861 55.8587C72.374 55.8545 72.3621 55.8492 72.3501 55.8449L72.346 55.8428L72.341 55.8407L72.3315 55.8375C72.1952 55.7857 72.0361 55.7424 71.842 55.7276L71.7173 56.0543L11.5706 73.6817L14.4046 83.3508L14.3967 83.3846L14.414 83.3836L30.8687 139.531L37.0526 137.719L37.9973 137.818H37.9989L38.0733 137.687L38.2005 137.452L38.034 137.431L240.259 78.1673L240.552 78.6146L241.09 78.3629L241.246 78.4676L242.27 77.8924L243.576 76.9259L243.196 76.6541L244.709 74.3753L242.252 75.5417L225.681 18.9977L228.423 18.9597L226.614 17.9001L227.976 16.6672L234.796 39.9401C234.655 39.8915 234.512 39.8513 234.37 39.8207H234.367L234.361 39.8185C234.022 39.7445 233.695 39.7191 233.398 39.7191C233.18 39.7191 232.978 39.7329 232.801 39.7519L232.73 40.7956L232.659 41.8372L232.684 41.835C232.727 41.8298 232.782 41.8245 232.846 41.8245C233.118 41.8245 233.554 41.9228 233.935 42.5721C233.992 42.7942 233.995 42.9972 233.935 43.1357L233.922 43.1642L233.919 43.1653L235.834 43.4804L246.011 78.2043C246.198 78.8409 245.833 79.5123 245.194 79.6984L126.326 114.534L126.347 114.346L125.826 114.418L125.663 114.442L124.36 114.625V114.626L124.359 114.632L124.353 114.664L124.349 114.681L124.33 114.76L124.281 115L124.262 115.139L51.7719 136.383C51.551 136.217 51.3085 136.093 51.0416 136.01L50.446 136.771L50.4377 136.773L51.0041 135.998C50.7512 135.919 50.4758 135.88 50.1883 135.88C50.1792 135.88 50.1701 135.88 50.1606 135.88L49.8884 136.935L30.088 142.737C29.9753 142.77 29.8612 142.786 29.7493 142.786ZM107.992 119.332L107.663 119.745L107.904 119.459L107.998 119.35L107.999 119.353L108.011 119.338L108.018 119.364L108.022 119.392L108.134 119.739L108.097 119.559L108.077 119.488L108.207 119.715L108.035 119.31L108.833 118.416L108.756 118.387L108.63 118.351L108.62 118.348C108.509 118.323 108.392 118.311 108.274 118.311C108.143 118.311 108.007 118.325 107.873 118.355L107.789 118.374L107.503 118.474L107.991 119.33L107.992 119.332ZM134.289 110.749L133.124 112.081L133.425 112.194L133.809 112.338L134.39 111.673L134.395 111.67L134.978 111.005L134.974 111.006L134.289 110.749ZM150.534 104.502L148.971 105.618L148.984 105.633L149.03 105.707L149.045 105.746L149.046 105.748L150.98 105.139C150.895 104.879 150.746 104.666 150.534 104.502ZM99.1568 45.7359C98.8163 45.7359 98.4377 45.8258 98.0772 46.0024L97.7028 46.1864L97.5675 46.4909L97.4935 46.621L97.3729 46.843V46.8462L97.3687 46.8504L97.2883 47.0492L97.2862 47.0651L98.6164 47.0831L99.2224 47.0947L99.2974 46.9604L99.4455 46.6844V46.6834L98.9791 46.6368L99.6517 45.811C99.5015 45.7602 99.3344 45.7359 99.1568 45.7359ZM148.033 110.337L147.887 109.869L147.907 109.864L148.033 110.337ZM148.151 110.311L148.113 109.803L148.135 109.796L148.151 110.311ZM252.206 84.5922C252.12 84.3585 252.031 84.1005 251.935 83.8161L252.696 83.9408C252.542 84.165 252.379 84.3818 252.206 84.5922Z" fill="#1E2936"/>
<path d="M156.316 85.1943L156.111 84.5186L156.118 84.5176L156.316 85.1943Z" fill="#1E2936"/>
<path d="M199.647 69.9414L199.174 69.8589L199.708 69.6379L199.712 69.7606L199.647 69.9414Z" fill="#1E2936"/>
<path d="M139.587 67.9873H139.586L139.61 67.9725L139.587 67.9873ZM139.586 67.9852V67.9841L139.604 67.9714H139.606L139.586 67.9852ZM140.23 67.54H140.228L140.753 67.1815L140.725 67.2016L140.23 67.54ZM140.753 67.1815L141.019 66.9976L141.035 66.9891L140.753 67.1815Z" fill="#1E2936"/>
<path d="M156.252 85.2119L155.903 83.8489L156.112 84.5172H156.116L155.92 83.8457L155.99 83.8182L156.942 83.8531L157.906 83.8891C157.704 84.4823 157.122 84.9571 156.315 85.1939L156.252 85.2119ZM156.116 84.5172L156.11 84.5182L156.315 85.1939L156.116 84.5172Z" fill="#FAFBF6"/>
<path d="M74.1706 80.6973L73.6324 80.1707L73.1511 79.698L73.092 79.7202L73.0644 79.6726L73.0458 79.6969L73.0528 79.6515L73.0161 79.6049L74.3221 78.335L74.5453 78.464C74.7269 78.5951 74.8727 78.7727 74.9822 78.9959L75.0132 79.0635L75.0272 79.1333C75.069 79.4199 75.0252 79.699 74.8951 79.9539L74.8922 79.9581V79.9613C74.7488 80.2426 74.506 80.4942 74.1706 80.6973Z" fill="#FAFBF6"/>
<path d="M133.808 112.338L133.424 112.194L133.123 112.081L134.288 110.749L134.974 111.006L134.978 111.004L134.394 111.67L134.39 111.673L133.808 112.338Z" fill="#FAFBF6"/>
<path d="M177.704 18.7754L177.703 18.7722L177.699 18.7733L177.533 18.6887C177.431 18.6358 177.331 18.5851 177.254 18.5618L177.247 18.5576L177.244 18.5586L178.266 17.1765L178.392 17.2157V17.2178L178.4 17.2199L178.413 17.2231L178.424 17.2273V17.2294C178.599 17.2929 178.741 17.3658 178.872 17.4325L179.01 17.5001L179.006 17.5022L179.012 17.5033L177.704 18.7754Z" fill="#FAFBF6"/>
<path d="M124.6 89.0469L124.561 88.9126L124.467 88.9432L124.323 88.2527L124 87.7769L124.163 87.6997L124.343 87.6659C124.53 87.6299 124.709 87.6119 124.878 87.6119C125.545 87.6119 126.052 87.8848 126.228 88.368L124.734 88.8555L124.812 88.9665L124.6 89.0469Z" fill="#FAFBF6"/>
<path d="M72.3794 112.666L72.3037 112.587L71.6565 111.901L72.7676 111.359L73.189 111.934L73.9234 111.509L73.9243 111.51H73.9263L74.0172 111.609L74.227 111.825L74.2328 111.832H74.2361L74.2402 111.838L74.2456 111.839L74.2465 111.842L74.2506 111.847L74.2547 111.845L74.2691 111.859L73.6454 112.295L72.3794 112.666Z" fill="#FAFBF6"/>
<path d="M252.695 83.9414L251.935 83.8166C251.793 83.3926 251.638 82.9083 251.465 82.3563L251.282 81.816L250.876 81.7737L250.575 81.6098L250.593 81.3539C250.715 81.3401 250.857 81.3306 251.008 81.3306C251.214 81.3306 251.441 81.3486 251.672 81.3994L251.679 81.4025L251.682 81.4004C252.255 81.5284 252.861 81.8498 253.269 82.5837L253.308 82.6746C253.325 82.7285 253.339 82.7825 253.352 82.8353C253.158 83.2181 252.938 83.5882 252.695 83.9414Z" fill="#FAFBF6"/>
<path d="M149.046 105.749L149.045 105.747L149.03 105.708L148.984 105.634L148.971 105.619L150.534 104.502C150.746 104.667 150.895 104.88 150.98 105.14L149.046 105.749Z" fill="#FAFBF6"/>
<path d="M14.3956 83.3848L14.4034 83.3518L14.4125 83.3837L14.3956 83.3848Z" fill="#FAFBF6"/>
<path d="M58.4347 100.025C58.5082 99.3909 58.9448 98.8813 59.6276 98.6254L59.9238 99.2672L60.2059 99.8784L58.4347 100.025Z" fill="#FAFBF6"/>
<path d="M37.9971 137.817H37.9955L37.0508 137.718L38.0322 137.43L38.1987 137.452L38.0715 137.686L37.9971 137.817Z" fill="#FAFBF6"/>
<path d="M151.767 66.0742H151.765L150.895 64.9121L151.044 64.8085L151.08 64.7461L151.104 64.6488L153.085 64.4363C153.077 64.5854 153.041 64.7345 152.986 64.873L152.034 64.8106L152.986 64.8751C152.808 65.333 152.421 65.7274 151.852 66.0298L151.849 66.034L151.767 66.0742Z" fill="#FAFBF6"/>
<path d="M73.2468 102.919L72.3558 102.735L71.478 102.528L71.4813 102.52L71.4854 102.513C71.5185 102.441 71.5317 102.291 71.5243 102.066C71.3913 101.673 71.2686 101.589 71.2157 101.571L71.2034 101.569L72.0708 100.151C72.0728 100.151 72.0749 100.152 72.0769 100.152L72.803 102.63L73.4537 102.439C73.4301 102.532 73.3963 102.626 73.3541 102.719V102.721L73.3512 102.731L73.2468 102.919Z" fill="#FAFBF6"/>
<path d="M148.178 111.028L148.166 110.837L148.171 111.027L148.148 110.772L148.023 110.344L147.884 109.87L147.887 109.869L148.033 110.338L147.907 109.864L148.112 109.804L148.15 110.311L148.134 109.796L148.807 109.6C148.998 109.635 149.174 109.699 149.326 109.793L148.168 110.756L148.171 110.838L148.221 111.019L148.194 110.929L148.216 111.021L148.175 110.867L148.179 110.876L148.171 110.85L148.172 110.856L148.169 110.845L148.178 111.028Z" fill="#FAFBF6"/>
<path d="M200.76 66.1484L200.583 65.4664L200.401 64.7844L200.6 65.4611H200.601L200.413 64.7812L200.44 64.6501C200.382 64.4344 200.258 64.3688 200.163 64.3445L200.089 64.3339L200.826 62.8905L200.846 62.8947C201.721 63.0248 202.284 63.4964 202.424 64.2229L202.434 64.3371C202.419 64.667 202.315 64.9758 202.125 65.2443L202.124 65.2475L202.119 65.2507C201.844 65.643 201.396 65.9549 200.824 66.1284L200.601 65.4611H200.6L200.8 66.1357L200.76 66.1484Z" fill="#FAFBF6"/>
<path d="M198.399 18.9297L198.511 18.7965L198.597 18.7013L198.599 18.6992L198.882 18.789L198.399 18.9297ZM198.882 18.789L198.597 18.6981L198.973 18.7615L198.882 18.789Z" fill="#FAFBF6"/>
<path d="M100.697 68.6904L99.3706 67.9555L99.2427 68.002V68.001L99.2384 68.002L99.2173 67.9534L99.1835 68.0042L99.1983 67.909C99.1496 67.8096 99.0862 67.6869 99.0375 67.652L99.1052 67.6753L99.2173 67.6901L99.2215 67.6742L98.936 67.0493L98.6442 66.4043L98.8208 66.3461L99.0259 67.0239H99.028L98.8208 66.3461L99.0322 67.0176L98.8493 66.3387L98.899 66.325C99.0841 66.2742 99.2691 66.2425 99.4468 66.2308L99.3537 66.9594L99.4943 66.2287C99.5324 66.2266 99.5694 66.2256 99.6054 66.2256C100.186 66.2256 100.54 66.4402 100.769 66.694C100.957 66.8991 101.063 67.1307 101.141 67.302L101.18 67.3887L101.183 67.485C101.196 67.743 101.155 67.9777 101.063 68.1892V68.1924C100.981 68.3785 100.857 68.5456 100.697 68.6904Z" fill="#FAFBF6"/>
<path d="M106.797 101.951L106.103 101.059L105.915 100.819L105.901 100.802L105.856 100.836L105.826 100.878L105.824 100.784L105.401 98.2956L107.738 100.111L107.794 100.301L107.797 100.327C107.9 100.923 107.585 101.487 106.951 101.864L106.797 101.951Z" fill="#FAFBF6"/>
<path d="M134.206 59.4609L133.84 58.8466L133.794 58.7694L133.558 58.8392L133.736 58.6668L133.482 58.229L133.466 58.2386L133.413 58.2639L133.447 58.2428L133.45 58.2375L133.676 58.1032L133.682 58.1L133.965 58.4458L134.044 58.3686L134.7 57.7331L134.719 57.7426V57.7447L134.725 57.7458L134.739 57.7542C135.061 57.9308 135.098 58.2132 135.116 58.3506L135.122 58.3887L135.27 58.892L134.585 59.2505L134.513 59.2981L134.509 59.3002L134.373 59.3785L134.372 59.3806L134.361 59.3859L134.352 59.3922L134.206 59.4609ZM133.398 58.2724L133.397 58.2703L133.401 58.2692L133.413 58.2639L133.398 58.2724Z" fill="#FAFBF6"/>
<path d="M144.341 117.919C144.276 117.757 144.262 117.573 144.307 117.371L144.319 117.328L144.34 117.258L145.303 117.29L145.589 117.298L145.811 117.178L145.963 117.095L145.96 117.097L145.955 117.1L145.838 117.213L146.18 117.317L146.179 117.32H146.178L146.159 117.321L146.179 117.324V117.326L146.265 117.355L144.341 117.919Z" fill="#FAFBF6"/>
<path d="M135.618 117.915H135.615L135.56 117.881L135.37 117.745L135.258 117.667L136.478 116.357L136.681 116.455V116.456L136.683 116.458L136.689 116.461L136.915 116.619L137.023 116.697L136.319 117.307L135.618 117.915Z" fill="#FAFBF6"/>
<path d="M107.607 86.5137L106.529 85.4647L106.527 85.4668C106.543 85.4414 106.596 85.3389 106.574 85.1105C106.508 84.9148 106.402 84.6293 106.299 84.5839L106.512 83.8542L106.722 83.1193C107.275 83.1288 107.65 83.2874 107.911 83.5063V83.5085L107.918 83.5106L107.923 83.5169H107.925C108.273 83.8172 108.416 84.2307 108.523 84.5278L108.54 84.5796L108.553 84.6452C108.669 85.6011 108.14 86.1626 107.676 86.4671L107.607 86.5137ZM106.524 85.4721L106.525 85.4689L106.527 85.4668C106.525 85.471 106.524 85.4721 106.524 85.4721Z" fill="#FAFBF6"/>
<path d="M131.68 121.447L131.454 121.335L131.379 121.292L131.353 121.279L131.247 121.223L131.563 120.835L132.268 119.842L131.788 120.542L132.312 119.855L132.352 119.869L132.575 119.958L132.58 119.963L132.583 119.962L132.77 120.065L132.904 120.137L132.294 120.792L131.68 121.447Z" fill="#FAFBF6"/>
<path d="M159.837 45.8594L159.676 45.3063L163.698 44.1273L163.85 44.1146C163.93 44.1083 164.007 44.1051 164.082 44.1051C164.86 44.1051 165.402 44.4171 165.504 44.9479L165.517 45.0272L165.522 45.0748L163.905 45.3645L163.622 45.4142L163.534 45.4301L163.535 45.4385L163.537 45.4449L163.658 45.5591V45.558L163.704 45.5718L163.696 45.5707L163.704 45.5728H163.655L159.837 45.8594Z" fill="#FAFBF6"/>
<path d="M159.739 20.7314L158.82 19.7607L158.661 19.7152L158.688 19.6698L158.766 19.6994L158.721 19.6719L158.751 19.6846L158.741 19.6782L158.748 19.6803L158.7 19.6592L158.698 19.6613V19.6603V19.6581L158.714 19.6306L158.729 19.6042H158.751L158.768 19.5852L158.812 19.6084L160.647 19.6846L160.529 19.9553L160.436 20.097L160.34 20.2313L160.259 20.318C160.111 20.4776 159.935 20.6162 159.739 20.7314Z" fill="#FAFBF6"/>
<path d="M139.751 68.0137L139.753 68.0073L139.755 68.0095L139.775 67.9629L139.78 67.9449L139.654 67.9661H139.645L139.591 67.9999L139.59 67.9978L139.637 67.9661L139.632 67.9672L139.59 67.9946L139.588 67.9872L139.611 67.9724L139.586 67.9872V67.9851L139.607 67.9714H139.604L139.586 67.9841L139.219 66.731C139.465 66.6633 139.704 66.6295 139.93 66.6295C140.362 66.6295 140.744 66.7511 141.036 66.989L141.02 66.9975L140.754 67.1815L140.229 67.5399H140.23L140.726 67.2016L140.317 67.485L141.04 66.9964L140.233 67.5431L140.238 67.5452L141.045 66.9996L140.239 67.5463L140.241 67.5484L141.051 67.0059L140.252 67.5463L141.062 67.0133L140.335 67.4998L141.068 67.0197L140.252 67.5548L140.254 67.5558L141.071 67.0239L140.372 67.4828L141.077 67.0282L140.26 67.559V67.5611L141.082 67.0303L140.357 67.5029L141.087 67.0366L140.264 67.5621H140.267L141.093 67.0398L140.275 67.5621L141.097 67.043L140.288 67.577L139.746 67.9048L139.749 67.9069L139.814 67.9619V67.9629V67.965L139.751 68.0137ZM140.726 67.2016L140.754 67.1815L141.036 66.989L140.726 67.2016Z" fill="#FAFBF6"/>
<path d="M75.7878 108.305C75.0095 108.305 74.4506 107.98 74.3371 107.44L74.335 107.425L75.3172 107.185L76.0265 107.01L76.0008 106.87L76.012 106.894L76.0079 106.868L76.05 107.003L76.0719 106.996L76.045 106.859L76.0988 106.991L76.1566 106.978L76.1504 107.109L76.5882 108.16L76.4333 108.21L76.2351 107.533L76.2297 107.534L76.2309 107.538L76.4222 108.187L76.4279 108.212L76.2372 108.261L76.0307 108.295C75.9475 108.302 75.8666 108.305 75.7878 108.305Z" fill="#FAFBF6"/>
<path d="M67.2376 95.7168L65.4532 95.3467L65.4511 95.3478L65.4589 95.3382C65.4664 95.3107 65.4755 95.2441 65.4664 95.1352C65.383 95.0104 65.2524 94.8592 65.1058 94.8296L65.0513 94.8254L65.4279 93.3598C65.4337 93.3598 65.4396 93.3598 65.4453 93.3598C66.3048 93.3598 66.9488 93.7151 67.3603 94.414L67.4049 94.4828L67.4201 94.5674C67.5069 94.9925 67.445 95.3805 67.2376 95.7168ZM65.4507 95.3478H65.4498H65.4511H65.4507Z" fill="#FAFBF6"/>
<path d="M71.7178 56.0547L71.8424 55.7279C72.0366 55.7427 72.1956 55.7861 72.3319 55.8379L72.3414 55.8411L72.3464 55.8432L72.3505 55.8453C72.3625 55.8495 72.3744 55.8548 72.3865 55.8591L71.7178 56.0547Z" fill="#FAFBF6"/>
<path d="M119.554 80.3994C119.077 80.2916 118.721 80.042 118.526 79.6772L120.396 78.919L120.461 78.9899H120.462L120.465 78.9888L119.554 80.3994Z" fill="#FAFBF6"/>
<path d="M62.3055 111.071C62.2009 110.809 62.1196 110.757 62.1101 110.754L63.1543 109.38C63.8263 109.574 64.0854 110.067 64.225 110.418L63.2646 110.746L62.3055 111.071Z" fill="#FAFBF6"/>
<path d="M99.2207 47.0947L98.6148 47.0831L97.2845 47.0651L97.2867 47.0493L97.367 46.8505L97.3713 46.8462V46.8431L97.4918 46.621L97.5658 46.4909L97.7012 46.1864L98.0755 46.0024C98.4361 45.8258 98.8147 45.7359 99.1551 45.7359C99.3328 45.7359 99.4999 45.7602 99.65 45.811L98.9775 46.6369L99.4438 46.6834V46.6844L99.2958 46.9604L99.2207 47.0947Z" fill="#FAFBF6"/>
<path d="M117.575 97.918L116.731 97.1683L116.625 96.8045L117.31 96.5867L118.278 96.28C118.485 96.887 118.221 97.4982 117.575 97.918Z" fill="#FAFBF6"/>
<path d="M107.664 119.745L107.993 119.332L107.992 119.33L107.504 118.474L107.79 118.374L107.874 118.355C108.009 118.325 108.144 118.31 108.275 118.31C108.393 118.31 108.51 118.323 108.621 118.347L108.631 118.35L108.757 118.386L108.834 118.416L108.036 119.309L108.208 119.714L108.078 119.488L108.098 119.559L108.135 119.739L108.023 119.392L108.019 119.363L108.012 119.338L108 119.353L107.999 119.35L107.905 119.459L107.664 119.745Z" fill="#FAFBF6"/>
<path d="M19.2797 61.3877L19.1901 61.3486L19.0133 60.6676L18.8369 59.9855C19.0918 59.9168 19.3429 59.883 19.5841 59.883C19.9509 59.883 20.2954 59.9612 20.5965 60.1177L20.7122 60.1812L20.7134 60.1822L19.2797 61.3877Z" fill="#FAFBF6"/>
<path d="M130.901 38.7109L130.871 38.5978L132.553 38.2192L132.682 38.1885L130.901 38.7109Z" fill="#FAFBF6"/>
<path d="M58.0512 83.1084L57.3036 82.5638L57.0433 82.3904L57.7187 81.7211L57.5857 81.6164L57.7712 81.4852L58.0016 81.4176L58.0065 81.4355L58.3341 81.112L58.3899 81.1363L58.394 81.1395L58.3981 81.1405C58.577 81.2346 58.7183 81.3383 58.843 81.4334L58.9578 81.5212L60.0401 82.2847L58.6295 82.6981L58.0512 83.1084Z" fill="#FAFBF6"/>
<path d="M124.263 115.14L124.282 115L124.331 114.76L124.35 114.682L124.354 114.665L124.359 114.632L124.36 114.627V114.626L125.664 114.443L125.827 114.418L126.347 114.347L126.327 114.535L124.263 115.14Z" fill="#FAFBF6"/>
<path d="M81.5964 136.307L77.7769 135.555L83.4928 135.135C84.0471 135.094 84.5015 134.994 84.7813 134.847L85.1218 135.274L81.5964 136.307Z" fill="#FAFBF6"/>
<path d="M226.61 89.9912L226.161 88.6567L226.22 88.6366L226.293 88.4315L226.244 88.385L226.241 88.3829L227.39 87.0463C227.75 87.1763 228.016 87.4058 228.196 87.7198L228.232 87.7865L228.245 87.8594C228.419 88.6832 227.917 89.454 226.936 89.8685C226.836 89.9119 226.727 89.9542 226.61 89.9912Z" fill="#FAFBF6"/>
<path d="M131.265 53.0625L130.599 50.7901L130.85 50.7161C131.291 51.0555 131.418 51.543 131.481 51.7978L131.493 51.8666C131.526 52.1584 131.507 52.428 131.436 52.6691C131.396 52.8087 131.339 52.9398 131.265 53.0625Z" fill="#FAFBF6"/>
<path d="M161.047 109.592L159.548 108.895L159.512 108.903L159.548 108.894L159.545 108.892L159.543 108.89L161.377 108.303L160.54 108.579L161.38 108.311V108.313L161.404 108.382V108.386C161.524 108.815 161.4 109.24 161.047 109.592Z" fill="#FAFBF6"/>
<path d="M63.6727 78.2314L62.6471 77.1508L62.8796 77.0302L62.8853 77.0281C63.0712 76.9435 63.2584 76.8801 63.4153 76.8251L63.6673 76.7384L63.8131 76.7204C63.9564 76.7003 64.1011 76.6844 64.2497 76.6749L64.26 76.6739C64.3162 76.6707 64.3737 76.6686 64.4311 76.6686C64.4823 76.6686 64.533 76.6696 64.583 76.6739L64.5884 76.6728L64.5967 76.6749L64.6082 76.6739L64.6132 76.6749L64.6814 76.6812L64.0638 78.0834L64.068 78.0908L64.0597 78.0929L64.0411 78.1331L64.0246 78.1352L63.913 78.1426L63.6826 78.2251L63.6735 78.2304L63.6727 78.2314Z" fill="#FAFBF6"/>
<path d="M67.1042 47.002C66.4156 47.002 65.7989 46.7461 65.1669 46.3326L71.2066 44.5635C69.9497 45.7605 69.012 46.5684 67.984 46.8698C67.675 46.9597 67.3838 47.002 67.1042 47.002Z" fill="#FAFBF6"/>
<path d="M176.698 76.9346L176.695 76.9155C176.674 76.758 176.706 76.6025 176.727 76.4809L176.746 76.3646L176.765 75.9522L177.265 75.6826C177.623 75.4859 178.005 75.3823 178.354 75.3802C178.364 75.3802 178.375 75.3802 178.385 75.3802C178.502 75.3802 178.608 75.3928 178.713 75.4172L178.715 75.4182L178.728 75.4203L178.746 75.4235L178.763 75.4288L178.773 75.4309V75.433L178.802 75.4394L178.805 75.4383C179.038 75.5081 179.234 75.6287 179.371 75.8042L179.269 75.8581V75.8623L179.375 75.8074L179.412 75.8571L179.279 75.9205C179.324 76.2737 178.99 76.6575 178.489 76.8045C178.358 76.8426 178.229 76.8606 178.107 76.8606C178.012 76.8606 177.921 76.85 177.837 76.8309L177.92 76.8436L178.17 76.8183L178.223 76.7971L178.083 76.6374L177.914 76.6702L177.815 76.8278L177.79 76.8214L177.779 76.8183L177.777 76.8193L177.883 76.6776L177.613 76.7284L177.766 76.8161L177.583 76.7368L177.575 76.7379L176.698 76.9346Z" fill="#FAFBF6"/>
<path d="M225.682 18.998L225.189 17.3167L225.225 17.2967L225.288 17.3125L227.818 16.1282L227.977 16.6675L226.615 17.9004L228.424 18.96L225.682 18.998ZM229.284 15.4863L229.272 15.4472L229.386 15.3933L229.284 15.4863Z" fill="#FAFBF6"/>
<path d="M96.5791 44.1377L96.3782 43.3478L96.6214 44.1261L96.5791 44.1377ZM96.6309 44.1229L96.4025 43.3425L96.5019 43.3045L97.8744 43.3531L99.1 43.3996L96.6309 44.1229Z" fill="#FAFBF6"/>
<path d="M5.84463 85.6787L3.29432 85.1585L3.28564 85.1288L3.40344 84.9544L3.56322 84.7397L3.69995 84.561L4.59094 84.6731L5.04743 84.7154L6.40009 84.8444L6.37249 84.9015C6.26591 85.131 6.11099 85.334 5.97881 85.4989L5.84463 85.6787Z" fill="#FAFBF6"/>
<path d="M64.5447 84.3945L63.9911 84.1873L63.5603 84.0234L65.2365 82.102L66.227 82.4753L66.232 82.4742L65.3881 83.4333L65.3852 83.4354L64.5447 84.3945Z" fill="#FAFBF6"/>
<path d="M110.298 93.6025L107.604 93.298L107.607 93.2917L107.644 93.2208L107.703 93.1077L107.724 93.0717L109.028 93.3075L110.334 93.5444L110.298 93.6025Z" fill="#FAFBF6"/>
<path d="M180.59 69.7842C179.809 69.7355 179.181 69.4511 178.716 68.9499L178.574 68.7659L181.141 67.4779L181.309 67.6492L181.386 67.681L181.389 67.6841L180.59 69.7842Z" fill="#FAFBF6"/>
<path d="M51.2785 50.8369L51.2219 50.6423L51.0831 50.6889L51.0386 50.4732L53.5669 49.7319C53.5862 49.7731 53.6036 49.8154 53.6193 49.8598L51.4705 50.5609L51.5821 50.7227L51.2785 50.8369Z" fill="#FAFBF6"/>
<path d="M235.834 43.4805L233.919 43.1654L233.923 43.1643L233.935 43.1357C233.996 42.9972 233.992 42.7942 233.935 42.5722C233.555 41.9229 233.119 41.8245 232.846 41.8245C232.783 41.8245 232.728 41.8298 232.684 41.8351L232.66 41.8372L232.731 40.7957L232.802 39.752C232.978 39.7329 233.18 39.7192 233.398 39.7192C233.695 39.7192 234.023 39.7446 234.361 39.8186L234.368 39.8207H234.371C234.513 39.8514 234.655 39.8916 234.797 39.9402L235.834 43.4805Z" fill="#FAFBF6"/>
<path d="M249.901 86.6182C249.468 85.7775 249.113 84.6683 248.646 83.208L248.124 81.5827L248.193 81.5848L247.747 80.0642L250.575 81.6091L250.877 81.773L251.283 81.8153L251.466 82.3557C251.639 82.9076 251.794 83.3919 251.935 83.816C252.03 84.1004 252.12 84.3584 252.206 84.5921C251.561 85.3778 250.786 86.0662 249.901 86.6182Z" fill="#FAFBF6"/>
<path d="M86.4975 74.8984L86.4954 74.8963L86.4743 74.8361L86.4066 74.7324L86.3876 74.7092L86.6414 74.5283C86.6868 74.6214 86.7312 74.7155 86.7756 74.8107L86.4975 74.8984Z" fill="#FAFBF6"/>
<path d="M183.591 70.6133L181.699 69.337L181.659 69.3708L181.59 69.4755L181.587 69.485C181.591 69.4639 181.595 69.3782 181.535 69.2503L182.91 68.7554L184.285 68.2637C184.632 69.0737 184.43 69.89 183.72 70.5022L183.686 70.5361L183.591 70.6133Z" fill="#FAFBF6"/>
<path d="M135.24 114.213L135.241 114.208L135.297 114.179L134.836 113.694L136.98 113.066L137.008 113.18L135.285 113.569L135.589 114.083L135.584 114.084C135.476 114.131 135.359 114.174 135.24 114.213Z" fill="#FAFBF6"/>
<path d="M97.8692 99.5928L95.9023 98.3841L96.0366 98.2742L96.2576 98.1113L96.3306 98.0584L96.5199 97.9252L96.5368 97.9104L98.7606 98.8832V98.8864L98.6379 99.007L98.6369 99.008L98.6316 99.0101L98.6273 99.0144C98.4518 99.1793 98.2562 99.3157 98.0828 99.4405L97.8755 99.5907L97.8745 99.5885L97.8692 99.5928Z" fill="#FAFBF6"/>
<path d="M85.2391 82.5059L85.2042 82.1358L85.0234 81.5193L84.7379 80.5464L85.0403 81.5119L84.7781 80.5348L84.9452 80.4925L85.1313 80.4555L85.2042 81.4749L85.1736 80.447C85.3428 80.4196 85.5109 80.4058 85.6737 80.4058C86.1337 80.4058 86.5588 80.5147 86.9014 80.7273L85.2338 82.1125L85.237 82.232L85.3079 82.4921L85.2709 82.3631L85.3036 82.4942L85.2455 82.2722L85.2476 82.2859L85.237 82.251L85.2402 82.2574L85.236 82.2426L85.2476 82.5059L85.2328 82.2309L85.2391 82.5059Z" fill="#FAFBF6"/>
<path d="M202.541 71.2656L202.244 69.5864L202.461 69.5346C202.779 69.4765 203.084 69.449 203.37 69.449C203.602 69.449 203.822 69.4669 204.029 69.5029C203.578 70.1088 203.083 70.6957 202.541 71.2656Z" fill="#FAFBF6"/>
<path d="M192.045 98.8223L191.757 98.6647L191.606 98.7176L191.524 98.5421L189.976 97.6961C190.065 97.6147 190.167 97.5311 190.275 97.4508L190.281 97.4455L192.309 96.8512C193.091 96.865 193.709 97.1653 194.007 97.6876L194.009 97.6898L194.011 97.6951L194.088 97.8494L191.975 98.5886L192.159 98.7356L192.082 98.6848L192.15 98.7419L191.955 98.5949L191.923 98.6055L192.126 98.7599L192.067 98.8064L192.045 98.8223Z" fill="#FAFBF6"/>
<path d="M199.041 71.3701L197.25 71.1692L197.025 70.7494C196.839 70.41 196.829 70.1001 196.886 69.8506C196.917 69.7152 196.97 69.5947 197.025 69.4942L197.053 69.4445L198.57 69.7523L198.848 69.1527L198.849 69.1516L200.001 69.2796L199.041 71.3701ZM199.708 69.638L199.174 69.8591L199.647 69.9415L199.712 69.7607L199.708 69.638Z" fill="#FAFBF6"/>
<path d="M25.6312 69.4287L24.6282 68.1429L24.361 67.796L24.337 67.7728L24.2717 67.8214L24.2288 67.8817L24.2275 67.7485L24.1061 67.0305L26.4353 66.3484L26.9868 66.7767L27.0674 67.0495L27.0706 67.0876C27.2189 67.9462 26.7638 68.7604 25.8501 69.305L25.6312 69.4287ZM23.8393 65.4549L23.6204 64.1627L24.8893 65.1472L23.8393 65.4549Z" fill="#FAFBF6"/>
<path d="M82.1889 93.4424L81.856 93.4413C81.3144 93.4382 80.8531 93.3472 80.4958 93.1791L80.4897 93.1801V93.178C79.8349 92.8724 79.5189 92.3247 79.6738 91.6437L79.6882 91.5813L79.7213 91.4798L81.1092 91.5274L81.5214 91.5401C81.6234 91.4809 81.7321 91.4238 81.8382 91.3656L82.0468 91.2524L81.8808 91.4142L82.3731 91.5654L82.3711 91.5707L82.369 91.5718H82.3402L82.3703 91.576L82.3711 91.5792L84.0403 92.1491C83.4665 92.6091 82.8494 93.0406 82.1889 93.4424ZM82.0468 91.2524L82.06 91.2451L82.0572 91.2493L82.0468 91.2524Z" fill="#FAFBF6"/>
<path d="M51.4711 139.596L50.1973 138.497L52.5731 137.801C52.5744 137.974 52.5505 138.144 52.5037 138.308V138.31L52.4983 138.324V138.332L52.4976 138.335C52.4067 138.629 52.2394 138.905 51.9998 139.158V139.159L51.9874 139.173L51.9779 139.18L51.973 139.191L51.9564 139.204L51.9544 139.208C51.8482 139.314 51.7313 139.414 51.5979 139.509L51.4711 139.596ZM49.8875 136.935L50.1596 135.88C50.1691 135.88 50.1782 135.88 50.1873 135.88C50.4749 135.88 50.7503 135.919 51.0031 135.998L50.4368 136.773L49.8875 136.935ZM50.445 136.771L51.0407 136.01C51.3076 136.093 51.55 136.217 51.7709 136.383L50.445 136.771Z" fill="#FAFBF6"/>
<path d="M67.1538 92.4287L67.1472 92.4266L67.0687 92.3801L66.7932 92.1855L66.6329 92.0702L68.3896 90.1827C68.5012 90.225 68.5942 90.2726 68.683 90.3244V90.3265L68.6892 90.3287L68.6933 90.3329C68.818 90.4059 68.9184 90.4852 69.0197 90.5592L69.1779 90.6744L68.1654 91.5511L67.1538 92.4287Z" fill="#FAFBF6"/>
<path d="M61.4782 97.5195C61.3729 97.473 61.2614 97.418 61.1511 97.3567L61.0446 97.2954L61.0045 97.2753L60.8524 97.196L61.3089 96.6355L62.325 95.2048L61.6331 96.2157L62.3861 95.226L62.4427 95.245C62.5625 95.2852 62.6712 95.3275 62.767 95.3751L62.7711 95.3793L62.7765 95.3782C62.8744 95.429 62.9653 95.4808 63.0479 95.5263L63.24 95.6299L62.3601 96.5742L61.4782 97.5195Z" fill="#FAFBF6"/>
<path d="M244.8 88.4795L244.509 88.1358L244.748 88.011L244.903 87.9317L245.257 88.3452L244.8 88.4795Z" fill="#FAFBF6"/>
<path d="M240.553 78.6143L240.26 78.167L242.803 77.4215L242.253 75.5414L244.71 74.375L243.196 76.6538L243.577 76.9255L242.271 77.892L241.247 78.4673L241.091 78.3626L240.553 78.6143Z" fill="#FAFBF6"/>
<path d="M41.155 63.6172L39.8175 62.4255L42.2612 61.7096C42.3195 62.4276 41.9262 63.117 41.155 63.6172Z" fill="#FAFBF6"/>
<path d="M53.4898 89.4033L52.9058 87.4111L53.0434 87.3921L53.7931 87.2842C53.7931 87.3868 53.784 87.4936 53.76 87.6046L53.7402 87.6903L53.7092 87.8352L53.67 88.016L53.4898 89.4033Z" fill="#FAFBF6"/>
<path d="M198.249 52.1953L197.603 50.2761L197.688 50.2444C197.791 50.2031 197.802 50.0604 197.791 49.9493L197.722 49.8838L197.715 49.8785L199.373 47.9529C199.892 48.1411 200.281 48.4689 200.534 48.9257L200.587 49.0188L200.607 49.1256C200.856 50.311 200.132 51.4202 198.719 52.0208C198.573 52.0843 198.418 52.1435 198.249 52.1953Z" fill="#FAFBF6"/>
<path d="M103.788 80.4375L101.629 79.4319L101.579 79.4446L101.628 79.4298L101.623 79.4277L101.622 79.4245L104.263 78.5785L103.056 78.9761L104.268 78.5923V78.5944L104.304 78.6927L104.305 78.6991L104.307 78.7012C104.475 79.3177 104.295 79.931 103.788 80.4375Z" fill="#FAFBF6"/>
<path d="M134.149 119.081L132.337 118.697L132.053 118.781L131.528 118.989L131.87 118.848L132.034 118.786L132.021 118.79L132.287 118.685H132.28L132.283 118.683L132.874 118.443L134.222 117.898L132.877 118.452L134.234 117.916L134.312 118.11L134.321 118.139L134.322 118.141L134.324 118.147L134.322 118.159V118.16L134.333 118.202V118.204C134.391 118.491 134.33 118.791 134.149 119.081Z" fill="#FAFBF6"/>
<path d="M26.4456 140.244L24.921 140.189C24.9901 139.967 25.1132 139.764 25.2144 139.6L25.3126 139.429L25.3134 139.426L26.235 139.525L26.4456 140.244ZM27.9706 139.811L27.9405 139.707L28.0161 139.715L28.0181 139.718C28.0033 139.748 27.9876 139.779 27.9706 139.811Z" fill="#FAFBF6"/>
<path d="M126.333 33.3857L126.33 33.3582C126.301 33.1309 126.348 32.9078 126.378 32.7312L126.406 32.562L126.434 31.9688L127.152 31.5807C127.669 31.2952 128.218 31.1493 128.72 31.144C128.726 31.144 128.731 31.144 128.736 31.144C128.914 31.144 129.078 31.1609 129.24 31.1979V31.2L129.259 31.2032L129.286 31.2085L129.31 31.2159L129.326 31.218V31.2212L129.367 31.2297H129.369C129.706 31.3301 129.986 31.5046 130.187 31.7563L130.039 31.8356L130.041 31.8419L130.192 31.7605L130.243 31.8313L130.053 31.9233C130.119 32.433 129.637 32.985 128.916 33.1965C128.725 33.2525 128.535 33.2779 128.356 33.2779C128.222 33.2779 128.094 33.2641 127.976 33.2367L128.097 33.2536C128.117 33.2557 128.137 33.2557 128.158 33.2557C128.26 33.2557 128.365 33.243 128.456 33.2165L128.533 33.187L128.332 32.9564L128.09 33.0029L127.947 33.2314L127.907 33.2218L127.892 33.2187H127.89L128.045 33.0146L127.655 33.0897C127.677 33.1171 127.743 33.1753 127.877 33.2155C127.78 33.1869 127.688 33.1457 127.608 33.1002L127.599 33.1034L126.333 33.3857Z" fill="#FAFBF6"/>
</g>
</g>
<g style="mix-blend-mode:darken" opacity="0.69">
<path d="M59.6597 114.252C55.3716 115.519 51.951 115.312 49.3979 113.63C46.8533 111.933 44.9386 108.91 43.6538 104.562L40.803 94.9136L37.876 95.7785L35.9968 89.4186L51.6797 84.7847L53.5589 91.1446L50.9029 91.9294L54.4798 104.035C54.8285 105.215 55.4041 106.099 56.2065 106.687C57.0054 107.263 58.0251 107.368 59.2658 107.002C60.3016 106.695 61.03 106.146 61.4507 105.354C61.8679 104.55 61.9199 103.618 61.6067 102.558L57.859 89.874L54.8959 90.7495L53.0167 84.3897L64.815 80.9036L66.6942 87.2635L63.9298 88.0803L67.6028 100.511C68.2825 102.812 68.39 104.882 67.9252 106.722C67.4689 108.546 66.5313 110.094 65.1124 111.364C63.6936 112.635 61.876 113.597 59.6597 114.252ZM85.4 99.0438L87.3112 105.512L75.802 108.913L73.8908 102.444L76.8178 101.58L72.1039 85.6257L69.2492 86.4692L67.37 80.1094L80.6498 76.1855L94.6979 90.6191L91.5375 79.9229L88.6466 80.7771L86.7674 74.4172L98.2766 71.0166L100.156 77.3764L97.3011 78.2199L103.916 100.606L92.9665 103.841L79.7278 90.4847L82.5092 99.898L85.4 99.0438ZM124.802 94.4346L109.264 99.0258L107.352 92.5575L110.171 91.7247L105.468 75.8069L102.721 76.6184L100.832 70.2224L116.225 65.6739C118.586 64.9763 120.753 64.6178 122.724 64.5983C124.705 64.5633 126.391 64.9949 127.783 65.8934C129.187 66.7883 130.2 68.2897 130.823 70.3976C131.912 74.0834 131.695 77.0288 130.172 79.2336C128.65 81.4385 125.889 83.1317 121.89 84.3133C120.866 84.6158 119.951 84.8208 119.145 84.9281L120.271 88.7404L122.891 87.9663L124.802 94.4346ZM115.604 72.812L117.494 79.208L118.234 78.9891C120.969 78.1812 121.98 76.5727 121.268 74.1637C121.005 73.2723 120.501 72.6747 119.756 72.3709C119.012 72.067 118.133 72.0646 117.122 72.3635L115.604 72.812ZM147.73 80.7449L149.609 87.1048L136.925 90.8524L135.046 84.4925L137.901 83.6491L138.116 66.1601L134.34 67.2759L132.461 60.916L150.366 55.6255L163.395 76.1163L166.231 75.2782L168.111 81.6381L151.94 86.4161L150.061 80.0562L152.41 79.3622L150.725 76.5202L144.203 78.4474L144.297 81.7592L147.73 80.7449ZM148.566 72.4041L143.87 64.2243L143.832 73.8028L148.566 72.4041ZM183.613 70.1425L185.492 76.5024L170.477 80.9387L168.598 74.5788L171.489 73.7247L166.754 57.6985L163.863 58.5527L161.984 52.1928L176.998 47.7565L178.877 54.1163L176.005 54.9652L180.74 70.9913L183.613 70.1425ZM201.139 71.8792L187.859 75.803L185.98 69.4431L188.87 68.589L184.135 52.5628L181.244 53.417L179.365 47.0571L192.681 43.1226C197.909 41.578 202.265 41.6069 205.751 43.2094C209.245 44.7963 211.692 47.9567 213.091 52.6904C214.454 57.3038 214.124 61.2646 212.103 64.573C210.081 67.8814 206.426 70.3168 201.139 71.8792ZM193.386 49.8295L198.121 65.8556L199.259 65.5193C200.608 65.1207 201.609 64.4518 202.261 63.5125C202.91 62.5612 203.26 61.4167 203.31 60.0791C203.36 58.7416 203.157 57.3019 202.702 55.7601C202.004 53.3992 200.979 51.6133 199.625 50.4022C198.272 49.1911 196.572 48.8881 194.524 49.4931L193.386 49.8295Z" fill="#A41C16"/>
</g>
</svg>
